<?xml version="1.0" encoding="UTF-8"?>
<svg width="38px" height="38px" viewBox="0 0 38 38" version="1.1" xmlns="http://www.w3.org/2000/svg" xmlns:xlink="http://www.w3.org/1999/xlink">
    <!-- Generator: Sketch 48.2 (47327) - http://www.bohemiancoding.com/sketch -->
    <title>ico_usp_rtn</title>
    <desc>Created with Sketch.</desc>
    <defs>
        <linearGradient x1="50%" y1="-4.54545455%" x2="50%" y2="102.3725%" id="linearGradient-1">
            <stop stop-color="#7CC0FF" offset="0%"></stop>
            <stop stop-color="#FFA3D7" offset="100%"></stop>
        </linearGradient>
    </defs>
    <g id="Symbols" stroke="none" stroke-width="1" fill="none" fill-rule="evenodd">
        <g id="ico_usp_rtn" fill="url(#linearGradient-1)">
            <g id="Group-15" transform="translate(0.000000, 2.000000)">
                <path d="M18.7338587,0 C9.25442016,0 1.56196677,7.69245338 1.56196677,17.1718919 C1.56196677,21.1004157 2.86822939,24.6964432 5.05305626,27.5872297 L1.01010026,26.350866 C0.597542725,26.2245728 0.160717916,26.4566359 0.0344247388,26.8691935 C-0.0918684382,27.281751 0.140194674,27.7185758 0.552752207,27.844869 L7.52883313,29.9761107 L8.49841123,22.7987962 C8.53175765,22.5767726 8.46789468,22.3511406 8.32313356,22.1795287 C8.17837245,22.0079168 7.96673027,21.9069421 7.74226258,21.9023945 C7.34099053,21.8940951 6.99881812,22.1914355 6.95105041,22.5899407 L6.38851242,26.7609542 C4.34503762,24.1110011 3.12304785,20.8090594 3.12304785,17.1718919 C3.12304785,8.53498445 10.0969512,1.56108108 18.7338587,1.56108108 L18.7338587,0 Z M20.3818358,0.059455256 L20.1607843,1.60224242 L20.9367517,1.71657943 C21.7118285,1.82273294 20.9361171,1.71635986 21.7111939,1.82329392 L21.9322453,0.280506757 L21.1562787,0.166169744 L20.3818358,0.059455256 Z M23.5969923,0.682972973 L23.086287,2.15715796 L23.8226169,2.40869932 C24.5594472,2.66003338 23.8236418,2.4081261 24.560472,2.66024069 L25.0711774,1.1860557 L23.5969923,0.682972973 Z M26.6246357,1.90104309 L25.8471439,3.24869512 L26.5209698,3.64048986 C27.2031622,4.03310176 26.5209698,3.64119727 27.2039427,4.03380916 L27.9814345,2.67701014 L26.6246357,1.90104309 Z M29.9388842,4.36767312 L28.9693061,11.5449876 C28.931904,11.8214427 29.0448613,12.0968465 29.2656127,12.2674195 C29.4863641,12.4379924 29.7813577,12.4778093 30.039432,12.371866 C30.2975063,12.2659226 30.4794366,12.0303214 30.5166668,11.7538431 L31.0792048,7.58282959 C33.1226794,10.2327827 34.3446695,13.5347244 34.3446695,17.1718919 C34.3446695,25.8087993 27.3707661,32.7827027 18.7338587,32.7827027 L18.7338587,34.3437838 C28.2132972,34.3437838 35.9057506,26.6513304 35.9057506,17.1718919 C35.9057506,13.2433681 34.5994879,9.64734058 32.4146612,6.75655405 L36.4576169,7.99291778 C36.8701744,8.11921104 37.3069993,7.887148 37.4332926,7.47459047 C37.5595859,7.06203294 37.3275228,6.62520806 36.9149653,6.49891479 L29.9388842,4.36767312 Z M10.2104168,30.2764354 L9.42835191,31.628661 L10.7821019,32.4107267 L11.5656912,31.0661231 L10.2104168,30.2764354 Z M12.8493151,31.6606757 L12.3325114,33.1318119 L13.8036477,33.6409921 L14.3204506,32.1698566 L13.5856451,31.9152661 L12.8493151,31.6606757 Z M15.6940193,32.5082943 L15.4683939,34.0510811 L16.2428369,34.1684674 L17.0172791,34.2767057 L17.2444289,32.7354433 L16.4684615,32.618057 L15.6940193,32.5082943 Z" id="Shape" fill-rule="nonzero"></path>
                <polygon id="7" points="22.5945946 13.457251 18.6573246 22.5066779 16.5243454 22.5066779 20.4686087 13.960774 15.4054054 13.960774 15.4054054 12.3243243 22.5945946 12.3243243"></polygon>
            </g>
        </g>
    </g>
</svg>