<?xml version="1.0" encoding="UTF-8"?>
<svg width="38px" height="38px" viewBox="0 0 38 38" version="1.1" xmlns="http://www.w3.org/2000/svg" xmlns:xlink="http://www.w3.org/1999/xlink">
    <!-- Generator: Sketch 48.2 (47327) - http://www.bohemiancoding.com/sketch -->
    <title>ico_usp_csh</title>
    <desc>Created with Sketch.</desc>
    <defs>
        <linearGradient x1="50%" y1="-4.54545455%" x2="50%" y2="102.3725%" id="linearGradient-1">
            <stop stop-color="#7CC0FF" offset="0%"></stop>
            <stop stop-color="#FFA3D7" offset="100%"></stop>
        </linearGradient>
    </defs>
    <g id="Symbols" stroke="none" stroke-width="1" fill="none" fill-rule="evenodd">
        <g id="ico_usp_csh" fill="url(#linearGradient-1)" fill-rule="nonzero">
            <path d="M12.5121797,0 C5.61093098,0 0,5.61093098 0,12.5121797 C0,19.1527588 5.18734115,24.5975113 11.7301684,24.9982923 C12.1895998,25.0276175 12.5871226,24.6757124 12.6164478,24.216281 C12.645773,23.7568497 12.293868,23.3593269 11.8344366,23.3300016 C6.15507984,22.9813548 1.66829062,18.2827711 1.66829062,12.5121797 C1.66829062,6.51350207 6.51350207,1.66829062 12.5121797,1.66829062 C18.2827711,1.66829062 22.9813548,6.15507984 23.3300016,11.8344366 C23.3593269,12.293868 23.7568497,12.645773 24.216281,12.6164478 C24.6757124,12.5871226 25.0276175,12.1895998 24.9982923,11.7301684 C24.5975113,5.18734115 19.1527588,0 12.5121797,0 Z M37,1 C36.449219,1 36,1.449219 36,2 C36,2.550781 36.449219,3 37,3 C37.550781,3 38,2.550781 38,2 C38,1.449219 37.550781,1 37,1 Z M34,3 C33.449219,3 33,3.449219 33,4 C33,4.550781 33.449219,5 34,5 C34.550781,5 35,4.550781 35,4 C35,3.449219 34.550781,3 34,3 Z M32,6 C31.449219,6 31,6.449219 31,7 C31,7.550781 31.449219,8 32,8 C32.550781,8 33,7.550781 33,7 C33,6.449219 32.550781,6 32,6 Z M10.2371297,8 L9.28980851,12.8821918 L11.026564,12.8821918 C11.2140544,12.6386984 11.6186397,12.1917808 12.4738602,12.1917808 C12.7797657,12.1917808 14.1053577,12.2996577 14.1053577,13.8438356 C14.1053577,14.3924661 13.7566913,15.5452055 12.4738602,15.5452055 C11.2831305,15.5452055 10.9673568,14.617466 10.921306,14.2136986 L9.00034927,14.2136986 C8.98061383,15.2770546 9.79307266,17 12.5001746,17 C15.0724151,17 16,15.0089045 16,13.8438356 C16,13.233562 15.6743581,10.8356164 13.1054076,10.8356164 C12.0199359,10.8356164 11.5232499,11.282534 11.2633942,11.5260274 L11.2370798,11.5013699 L11.6054824,9.47945205 L15.5000249,9.47945205 L15.5000249,8 L10.2371297,8 Z M29,8 C28.449219,8 28,8.449219 28,9 C28,9.550781 28.449219,10 29,10 C29.550781,10 30,9.550781 30,9 C30,8.449219 29.550781,8 29,8 Z M27,11 C26.449219,11 26,11.449219 26,12 C26,12.550781 26.449219,13 27,13 C27.550781,13 28,12.550781 28,12 C28,11.449219 27.550781,11 27,11 Z M24,13 C23.449219,13 23,13.449219 23,14 C23,14.550781 23.449219,15 24,15 C24.550781,15 25,14.550781 25,14 C25,13.449219 24.550781,13 24,13 Z M26.0091612,13.0024436 C25.5497298,13.044801 25.2108582,13.4553453 25.253217,13.9147631 C25.2955757,14.374181 25.706132,14.7130426 26.1655634,14.6706851 C31.8449202,15.0193217 36.3317094,19.7177671 36.3317094,25.4881886 C36.3317094,31.4866897 31.4864979,36.3317585 25.4878203,36.3317585 C19.7172289,36.3317585 15.0186452,31.8451013 14.6699984,26.1659118 C14.6406731,25.7064939 14.2431503,25.3545992 13.783719,25.3839235 C13.3242876,25.4132479 12.9723825,25.810759 13.0017077,26.2701769 C13.4024887,32.8128115 18.8472421,38 25.4878203,38 C32.3890699,38 38,32.389235 38,25.4881886 C38,18.8478058 32.8126589,13.4032127 26.2698316,13.0024436 C26.2339892,12.9991855 26.2014058,12.9991855 26.1655634,13.0024436 C26.1394964,13.0024436 26.1134293,13.0024436 26.0873623,13.0024436 C26.0612952,13.0024436 26.0352282,13.0024436 26.0091612,13.0024436 Z M22,16 C21.449219,16 21,16.449219 21,17 C21,17.550781 21.449219,18 22,18 C22.550781,18 23,17.550781 23,17 C23,16.449219 22.550781,16 22,16 Z M19,18 C18.449219,18 18,18.449219 18,19 C18,19.550781 18.449219,20 19,20 C19.550781,20 20,19.550781 20,19 C20,18.449219 19.550781,18 19,18 Z M17,21 C16.449219,21 16,21.449219 16,22 C16,22.550781 16.449219,23 17,23 C17.550781,23 18,22.550781 18,22 C18,21.449219 17.550781,21 17,21 Z M24.5766871,21 C24.5276074,21.3415736 23.6441718,22.7799443 22,22.7799443 L22,24.1587744 L24.208589,24.1587744 L24.208589,30 L26,30 L26,21 L24.5766871,21 Z M14,23 C13.449219,23 13,23.449219 13,24 C13,24.550781 13.449219,25 14,25 C14.550781,25 15,24.550781 15,24 C15,23.449219 14.550781,23 14,23 Z M12,26 C11.449219,26 11,26.449219 11,27 C11,27.550781 11.449219,28 12,28 C12.550781,28 13,27.550781 13,27 C13,26.449219 12.550781,26 12,26 Z M9,28 C8.449219,28 8,28.449219 8,29 C8,29.550781 8.449219,30 9,30 C9.550781,30 10,29.550781 10,29 C10,28.449219 9.550781,28 9,28 Z M7,31 C6.449219,31 6,31.449219 6,32 C6,32.550781 6.449219,33 7,33 C7.550781,33 8,32.550781 8,32 C8,31.449219 7.550781,31 7,31 Z M4,33 C3.449219,33 3,33.449219 3,34 C3,34.550781 3.449219,35 4,35 C4.550781,35 5,34.550781 5,34 C5,33.449219 4.550781,33 4,33 Z M2,36 C1.449219,36 1,36.449219 1,37 C1,37.550781 1.449219,38 2,38 C2.550781,38 3,37.550781 3,37 C3,36.449219 2.550781,36 2,36 Z" id="Shape-Copy"></path>
        </g>
    </g>
</svg>