<?xml version="1.0" encoding="UTF-8"?>
<svg width="38px" height="38px" viewBox="0 0 38 38" version="1.1" xmlns="http://www.w3.org/2000/svg" xmlns:xlink="http://www.w3.org/1999/xlink">
    <!-- Generator: Sketch 48.2 (47327) - http://www.bohemiancoding.com/sketch -->
    <title>ico_usp_free</title>
    <desc>Created with Sketch.</desc>
    <defs>
        <linearGradient x1="50%" y1="-4.54545455%" x2="50%" y2="102.3725%" id="linearGradient-1">
            <stop stop-color="#7CC0FF" offset="0%"></stop>
            <stop stop-color="#FFA3D7" offset="100%"></stop>
        </linearGradient>
    </defs>
    <g id="Symbols" stroke="none" stroke-width="1" fill="none" fill-rule="evenodd">
        <g id="ico_usp_free" fill="url(#linearGradient-1)" fill-rule="nonzero">
            <g id="Shape" transform="translate(0.000000, 6.000000)">
                <path d="M2.28,0 C1.03015644,0 0,1.03015644 0,2.28 L0,20.52 C0,21.7698436 1.03015644,22.8 2.28,22.8 L5.39125,22.8 C5.75343788,24.9553129 7.62671856,26.6 9.88,26.6 C12.1332814,26.6 14.0065629,24.9553129 14.36875,22.8 L21.4225,22.8 C21.9746879,22.8 22.4645314,22.5595314 22.8475,22.20625 C23.239375,22.5565629 23.7410936,22.8 24.32,22.8 L25.15125,22.8 C25.5134379,24.9553129 27.3867186,26.6 29.64,26.6 C32.1485936,26.6 34.2,24.5485936 34.2,22.04 C34.2,19.5314064 32.1485936,17.48 29.64,17.48 C27.3867186,17.48 25.5134379,19.1246879 25.15125,21.28 L24.32,21.28 C24.1923436,21.28 23.9875,21.185 23.82125,21.01875 C23.655,20.8525 23.56,20.6476564 23.56,20.52 L23.56,6.08 C23.56,5.95234356 23.655,5.7475 23.82125,5.58125 C23.9875,5.415 24.1923436,5.32 24.32,5.32 L30.4,5.32 C31.0264064,5.32 31.8992186,6.02359356 32.4425,6.6975 L32.5375,6.84 L28.88,6.84 C27.6628129,6.84 26.6,7.82265644 26.6,9.12 L26.6,12.16 C26.6,12.7923436 26.885,13.3475 27.28875,13.75125 C27.6925,14.155 28.2476564,14.44 28.88,14.44 L36.48,14.44 L36.48,20.52 C36.48,20.6476564 36.385,20.8525 36.21875,21.01875 C36.0525,21.185 35.8476564,21.28 35.72,21.28 L34.2,21.28 L34.2,22.8 L35.72,22.8 C36.3523436,22.8 36.9075,22.515 37.31125,22.11125 C37.715,21.7075 38,21.1523436 38,20.52 L38,13.22875 C38,12.37375 37.6734379,11.59 37.3825,10.99625 C37.0915629,10.4025 36.78875,9.975 36.78875,9.975 L36.78875,9.95125 L33.6775,5.77125 L33.65375,5.77125 L33.65375,5.7475 C32.9798436,4.904375 31.8992186,3.8 30.4,3.8 L24.32,3.8 C24.046875,3.8 23.7975,3.85046856 23.56,3.9425 L23.56,2.28 C23.56,1.03015644 22.5298436,0 21.28,0 L2.28,0 Z M2.28,1.52 L21.28,1.52 C21.7015629,1.52 22.04,1.85843788 22.04,2.28 L22.04,20.6625 C22.04,21.0157814 21.7757814,21.28 21.4225,21.28 L14.36875,21.28 C14.0065629,19.1246879 12.1332814,17.48 9.88,17.48 C7.62671856,17.48 5.75343788,19.1246879 5.39125,21.28 L2.28,21.28 C1.85843788,21.28 1.52,20.9415629 1.52,20.52 L1.52,2.28 C1.52,1.85843788 1.85843788,1.52 2.28,1.52 Z M28.88,8.36 L33.6775,8.36 L35.55375,10.85375 L35.5775,10.8775 C35.5923436,10.8982814 35.7971879,11.1892186 36.02875,11.66125 C36.2217186,12.053125 36.3226564,12.5192186 36.385,12.92 L28.88,12.92 C28.7523436,12.92 28.5475,12.825 28.38125,12.65875 C28.215,12.4925 28.12,12.2876564 28.12,12.16 L28.12,9.12 C28.12,8.74593788 28.5771879,8.36 28.88,8.36 Z M3.8,9.12 L3.8,13.5375 L4.7975,13.5375 L4.7975,11.70875 L6.6025,11.70875 L6.6025,10.94875 L4.7975,10.94875 L4.7975,9.95125 L6.84,9.95125 L6.84,9.12 L3.8,9.12 Z M7.6,9.12 L7.6,13.37125 L8.43125,13.37125 L8.43125,11.70875 L9.42875,11.70875 C10.1115629,11.70875 10.1115629,12.2371879 10.18875,12.92 C10.18875,13.0714064 10.1828129,13.2198436 10.26,13.37125 L11.2575,13.37125 C11.1060936,13.2198436 11.09125,12.6884379 11.09125,12.61125 C11.09125,11.5484379 10.6489064,11.4 10.4975,11.4 C10.7260936,11.3228129 11.1625,11.0140629 11.1625,10.33125 C11.1625,9.34265644 10.26,9.12 9.88,9.12 L7.6,9.12 Z M12.16,9.12 L12.16,13.5375 L15.4375,13.5375 L15.4375,12.6825 L13.0625,12.6825 L13.0625,11.6375 L15.2,11.6375 L15.2,10.8775 L13.0625,10.8775 L13.0625,9.95125 L15.3425,9.95125 L15.3425,9.12 L12.16,9.12 Z M16.4825,9.12 L16.4825,13.5375 L19.76,13.5375 L19.76,12.6825 L17.40875,12.6825 L17.40875,11.6375 L19.5225,11.6375 L19.5225,10.8775 L17.40875,10.8775 L17.40875,9.95125 L19.68875,9.95125 L19.68875,9.12 L16.4825,9.12 Z M8.5025,9.88 L9.57125,9.88 C9.79984356,9.88 10.26,9.96609356 10.26,10.4975 C10.26,11.1060936 9.79984356,11.09125 9.57125,11.09125 L8.5025,11.09125 L8.5025,9.88 Z M9.88,19 C11.5692186,19 12.92,20.3507814 12.92,22.04 C12.92,23.7292186 11.5692186,25.08 9.88,25.08 C8.19078144,25.08 6.84,23.7292186 6.84,22.04 C6.84,20.3507814 8.19078144,19 9.88,19 Z M29.64,19 C31.3292186,19 32.68,20.3507814 32.68,22.04 C32.68,23.7292186 31.3292186,25.08 29.64,25.08 C27.9507814,25.08 26.6,23.7292186 26.6,22.04 C26.6,20.3507814 27.9507814,19 29.64,19 Z"></path>
            </g>
        </g>
    </g>
</svg>