<?xml version="1.0" encoding="UTF-8"?>
<svg width="38px" height="38px" viewBox="0 0 38 38" version="1.1" xmlns="http://www.w3.org/2000/svg" xmlns:xlink="http://www.w3.org/1999/xlink">
    <!-- Generator: Sketch 48.2 (47327) - http://www.bohemiancoding.com/sketch -->
    <title>ico_usp_hnd</title>
    <desc>Created with Sketch.</desc>
    <defs>
        <linearGradient x1="50%" y1="-4.54545455%" x2="50%" y2="102.3725%" id="linearGradient-1">
            <stop stop-color="#7CC0FF" offset="0%"></stop>
            <stop stop-color="#FFA3D7" offset="100%"></stop>
        </linearGradient>
    </defs>
    <g id="Symbols" stroke="none" stroke-width="1" fill="none" fill-rule="evenodd">
        <g id="ico_usp_hnd" fill="url(#linearGradient-1)" fill-rule="nonzero">
            <g id="Group-15">
                <circle id="Oval" cx="20.4615385" cy="9.49780769" r="3.65311538"></circle>
                <path d="M36.8490385,23.9853077 C36.1635769,23.4766923 35.2471923,23.3283462 34.3381154,23.5804615 L23.1683077,26.6657692 C23.3049615,26.3281538 23.3838846,25.9613077 23.3838846,25.5747308 C23.3838846,23.9641154 22.0728846,22.6538462 20.4615385,22.6538462 L13.6105769,22.6538462 C13.1231538,21.9230769 11.8837692,19.7307692 10.2329615,19.7307692 L7.30769231,19.7307692 L7.30769231,19 C7.30769231,17.7898462 6.32919231,16.8076923 5.11830769,16.8076923 L2.19596154,16.8076923 C0.985807692,16.8076923 0,17.7898462 0,19 L0,31.4201538 C0,32.6310385 0.985807692,33.6153846 2.19596154,33.6153846 L5.11830769,33.6153846 C6.32919231,33.6153846 7.30769231,32.6310385 7.30769231,31.4201538 L7.30769231,30.8728077 L16.1785,36.8665769 C17.2921923,37.6207308 18.5885769,37.9992692 19.8878846,37.9992692 C21.0863462,37.9992692 22.2884615,37.677 23.3517308,37.0273462 L36.6312692,28.9172692 C37.4738462,28.4035385 38,27.4703462 38,26.4823462 L38,26.2550769 C38,25.3540385 37.5790769,24.5268077 36.8490385,23.9853077 Z M5.84615385,31.4230769 C5.84615385,31.8264615 5.51876923,32.1538462 5.11538462,32.1538462 L2.19230769,32.1538462 C1.78892308,32.1538462 1.46153846,31.8264615 1.46153846,31.4230769 L1.46153846,19 C1.46153846,18.5966154 1.78892308,18.2692308 2.19230769,18.2692308 L5.11538462,18.2692308 C5.51876923,18.2692308 5.84615385,18.5966154 5.84615385,19 L5.84615385,31.4230769 Z M36.5384615,26.4823462 C36.5384615,26.9646538 36.2812308,27.4199231 35.8690769,27.6713077 L22.5902692,35.7813846 C20.8634615,36.8373462 18.6682308,36.7869231 16.9969615,35.6571538 L7.30769231,29.1109231 L7.30769231,21.1923077 L10.2329615,21.1923077 C11.0068462,21.1923077 12.0365,22.6786923 12.4888462,23.6835 L12.6825,24.1153846 L20.4615385,24.1153846 C21.2668462,24.1153846 21.9230769,24.7701538 21.9230769,25.574 C21.9230769,26.3807692 21.2675769,27.0384615 20.4615385,27.0384615 L16.8084231,27.0384615 L13.1538462,27.0384615 L13.1538462,28.5 L16.8084231,28.5 L20.4615385,28.5 L21.9230769,28.5 L34.7268846,24.9893846 C35.1931154,24.8600385 35.6622692,24.9236154 35.9779615,25.1581923 C36.3331154,25.422 36.5384615,25.821 36.5384615,26.2543462 L36.5384615,26.4823462 Z" id="Shape"></path>
                <path d="M20.4615385,16.0732692 C24.0876154,16.0732692 27.037,13.1238846 27.037,9.49780769 C27.037,5.87173077 24.0868846,2.92234615 20.4615385,2.92234615 C16.8361923,2.92234615 13.8860769,5.87173077 13.8860769,9.49780769 C13.8860769,13.1238846 16.8354615,16.0732692 20.4615385,16.0732692 Z M20.4615385,4.38388462 C23.2815769,4.38388462 25.5754615,6.6785 25.5754615,9.49780769 C25.5754615,12.3171154 23.2808462,14.6117308 20.4615385,14.6117308 C17.6422308,14.6117308 15.3476154,12.3171154 15.3476154,9.49780769 C15.3476154,6.6785 17.6415,4.38388462 20.4615385,4.38388462 Z" id="Shape"></path>
                <path d="M27.7670385,1.46153846 C30.5870769,1.46153846 32.8824231,3.75615385 32.8824231,6.57546154 C32.8824231,9.39476923 30.6923077,11.6893846 27.7692308,11.6893846 L27.7692308,13.1509231 C31.4230769,13.1509231 34.3439615,10.2015385 34.3439615,6.57546154 C34.3439615,2.94938462 31.3938462,0 27.7677692,0 C26.1637308,0 24.6188846,0.583884615 23.4182308,1.6435 L24.3857692,2.73965385 C25.3189615,1.91534615 26.5203462,1.46153846 27.7670385,1.46153846 Z" id="Shape"></path>
            </g>
        </g>
    </g>
</svg>