<?xml version="1.0" encoding="UTF-8"?>
<svg width="40px" height="40px" viewBox="0 0 40 40" version="1.1" xmlns="http://www.w3.org/2000/svg" xmlns:xlink="http://www.w3.org/1999/xlink">
    <!-- Generator: Sketch 48.2 (47327) - http://www.bohemiancoding.com/sketch -->
    <title>ico_ig</title>
    <desc>Created with Sketch.</desc>
    <defs>
        <linearGradient x1="50%" y1="-4.54545455%" x2="50%" y2="102.3725%" id="linearGradient-1">
            <stop stop-color="#7CC0FF" offset="0%"></stop>
            <stop stop-color="#FFA3D7" offset="100%"></stop>
        </linearGradient>
    </defs>
    <g id="Symbols" stroke="none" stroke-width="1" fill="none" fill-rule="evenodd">
        <g id="ico_ig">
            <g id="Group-19">
                <circle id="placeholder" stroke="url(#linearGradient-1)" stroke-width="2" opacity="0.300000012" cx="20" cy="20" r="19"></circle>
                <path d="M28,23.3082707 C28,24.6917293 27.5169811,25.8947368 26.6716981,26.7368421 C25.8264151,27.5789474 24.6188679,28 23.290566,28 L16.709434,28 C15.3811321,28 14.1735849,27.5789474 13.3283019,26.7368421 C12.4226415,25.8947368 12,24.6917293 12,23.3082707 L12,16.6917293 C12,13.924812 13.8716981,12 16.709434,12 L23.3509434,12 C24.7396226,12 25.8867925,12.481203 26.7320755,13.3233083 C27.5773585,14.1654135 28,15.3082707 28,16.6917293 L28,23.3082707 L28,23.3082707 Z M23.0138249,14 L16.9308756,14 C16.0460829,14 15.2718894,14.2764977 14.7741935,14.7741935 C14.2764977,15.2718894 14,16.0460829 14,16.9308756 L14,23.0138249 C14,23.8986175 14.2764977,24.6728111 14.8294931,25.2258065 C15.3824885,25.7235023 16.1013825,26 16.9861751,26 L23.0138249,26 C23.8986175,26 24.6728111,25.7235023 25.1705069,25.2258065 C25.7235023,24.7281106 26,23.9539171 26,23.0691244 L26,16.9861751 C26,16.1013825 25.7235023,15.3824885 25.2258065,14.8294931 C24.6728111,14.2764977 23.9539171,14 23.0138249,14 L23.0138249,14 Z" id="shape" fill="url(#linearGradient-1)"></path>
                <path d="M24,17 C23.4375,17 23,16.5625 23,16 C23,15.4375 23.4375,15 24,15 C24.5625,15 25,15.4375 25,16 C25,16.5625 24.5625,17 24,17 Z M19.9708029,24 C17.7518248,24 16,22.1764706 16,20 C16,17.7647059 17.810219,16 19.9708029,16 C22.1313869,16 24,17.7647059 24,20 C24,22.2352941 22.189781,24 19.9708029,24 Z M20,22 C21.1045695,22 22,21.1045695 22,20 C22,18.8954305 21.1045695,18 20,18 C18.8954305,18 18,18.8954305 18,20 C18,21.1045695 18.8954305,22 20,22 Z" id="shape" fill="url(#linearGradient-1)"></path>
            </g>
        </g>
    </g>
</svg>