<?xml version="1.0" encoding="UTF-8"?>
<svg width="40px" height="40px" viewBox="0 0 40 40" version="1.1" xmlns="http://www.w3.org/2000/svg" xmlns:xlink="http://www.w3.org/1999/xlink">
    <!-- Generator: Sketch 48.2 (47327) - http://www.bohemiancoding.com/sketch -->
    <title>ico_tw</title>
    <desc>Created with Sketch.</desc>
    <defs>
        <linearGradient x1="50%" y1="-4.54545455%" x2="50%" y2="102.3725%" id="linearGradient-1">
            <stop stop-color="#7CC0FF" offset="0%"></stop>
            <stop stop-color="#FFA3D7" offset="100%"></stop>
        </linearGradient>
    </defs>
    <g id="Symbols" stroke="none" stroke-width="1" fill="none" fill-rule="evenodd">
        <g id="ico_tw">
            <g id="Group-17">
                <circle id="placeholder" stroke="url(#linearGradient-1)" stroke-width="2" opacity="0.300000012" cx="20" cy="20" r="19"></circle>
                <path d="M27,15.3629469 C26.4772593,15.5978904 25.9219367,15.7522701 25.3529412,15.8208292 C25.9545469,15.4544149 26.4030415,14.88246 26.6154118,14.2108292 C26.0527436,14.5493367 25.4359559,14.7883628 24.7921176,14.9174175 C24.2510421,14.3311539 23.4890818,13.9984124 22.6912941,14.0000057 C21.9245141,14.0047953 21.1910563,14.3140552 20.6523366,14.8597251 C20.113617,15.405395 19.813784,16.1427567 19.8188235,16.9095351 C19.8185887,17.1328678 19.8434505,17.3555196 19.8929412,17.5732998 C17.5758643,17.45256 15.4212594,16.345882 13.9734118,14.5328292 C13.2109501,15.8612393 13.5978418,17.5525908 14.862,18.4174175 C14.4052349,18.4029986 13.9587678,18.2781008 13.5608235,18.0534175 L13.5608235,18.0904763 C13.5548213,19.4683599 14.518265,20.6606216 15.8667059,20.9440057 C15.4439803,21.0603466 15.0001046,21.077538 14.5696471,20.994241 C14.9385034,22.1732562 16.0176807,22.9861172 17.2527059,23.0151822 C16.238904,23.8223617 14.9810669,24.2613852 13.6851765,24.2603586 C13.4602723,24.3368569 13.2143699,24.3223747 13,24.2200057 C14.3086941,25.0745958 15.8379298,25.5295892 17.4009412,25.5294175 C19.5868722,25.5291559 21.6816337,24.6533958 23.2173072,23.0977604 C24.7529806,21.5421251 25.6016154,19.4362284 25.5736471,17.2504763 C25.5736471,17.1236528 25.5736471,16.9984763 25.5654118,16.8732998 C26.129861,16.45944 26.6157117,15.9479301 27,15.3629469 L27,15.3629469 Z" id="twitter-icon" fill="url(#linearGradient-1)"></path>
            </g>
        </g>
    </g>
</svg>