<svg width="209" height="28" viewBox="0 0 209 28" fill="none" xmlns="http://www.w3.org/2000/svg">
<path d="M14.5 28C22.5081 28 29 21.732 29 14C29 6.26801 22.5081 0 14.5 0C6.49187 0 0 6.26801 0 14C0 21.732 6.49187 28 14.5 28Z" fill="white"/>
<path d="M19.1114 5H17.8801H17.1558L16.8312 5.63548L8.83698 21.3525L8 23H9.88589H11.1226H11.8496L12.0132 22.6757H12.0159L12.539 21.6506L14.8407 17.1212L15.6777 15.4736H15.675L17.1746 12.5264L17.4965 11.8935L20.1603 6.65015L21 5H19.1114Z" fill="black"/>
<path d="M45.0039 26H38L41.3742 2H55L54.0396 8.72099H47.4152L47.126 10.9246H53.7453L52.7824 17.6456H46.1631L45.0039 26Z" fill="white"/>
<path d="M64.3324 2L61.7445 18.976H70L68.9126 26H53L56.6726 2H64.3324Z" fill="white"/>
<path d="M94.9994 13.2776C95.0143 15.0002 94.6341 16.7052 93.8852 18.2746C93.161 19.7926 92.137 21.1651 90.8687 22.3181C89.5932 23.4665 88.1037 24.38 86.4761 25.0121C84.8295 25.6669 83.0613 26.0027 81.2757 25.9998C79.6538 26.0082 78.0456 25.7175 76.5406 25.1441C75.0867 24.5952 73.7566 23.7885 72.6215 22.7671C71.4982 21.7561 70.597 20.5443 69.9698 19.2016C69.3164 17.7987 68.9859 16.2797 69.0005 14.7461C68.9843 13.0235 69.3646 11.3182 70.1147 9.74914C71.5781 6.677 74.2277 4.25353 77.5182 2.97736C79.1682 2.32513 80.9393 1.99286 82.7269 2.00016C84.3505 1.9922 85.9596 2.28839 87.4621 2.87172C88.9122 3.42601 90.2404 4.23215 91.3784 5.24871C92.5025 6.25962 93.4046 7.47137 94.0329 8.81419C94.6865 10.2198 95.016 11.7416 94.9994 13.2776ZM81.5821 19.0352C82.3351 19.0372 83.0798 18.8859 83.7659 18.5915C84.4403 18.3091 85.0519 17.9075 85.568 17.4083C86.0815 16.9084 86.4933 16.3228 86.7825 15.681C87.0827 15.028 87.2364 14.3228 87.2337 13.6104C87.2398 12.9853 87.1158 12.3651 86.8688 11.7854C86.6355 11.2366 86.2878 10.7381 85.8466 10.3196C85.403 9.90042 84.8793 9.56519 84.3035 9.33185C83.6949 9.08727 83.0397 8.96411 82.3788 8.97002C81.62 8.96467 80.8691 9.11609 80.1783 9.41372C79.5093 9.70249 78.9051 10.1105 78.3984 10.6154C77.8885 11.1199 77.4823 11.7102 77.2007 12.3559C76.9135 13.0131 76.7668 13.7178 76.769 14.4292C76.7616 15.0536 76.8856 15.6731 77.1339 16.2515C77.3628 16.7926 77.7038 17.2847 78.1366 17.6988C78.5756 18.1113 79.0937 18.4403 79.663 18.6681C80.2691 18.9148 80.9226 19.0398 81.5821 19.0352Z" fill="white"/>
<path d="M98.6376 26L94 2H101.483L103.411 15.2354L109.101 2H115.629L117.357 15.2354L123.245 2H131L119.258 26H112.654L110.929 12.5029L105.217 26H98.6376Z" fill="white"/>
<path d="M139.543 2.00107C140.867 1.98436 142.186 2.16343 143.459 2.53267C144.543 2.84466 145.556 3.36861 146.442 4.07512C147.258 4.73779 147.908 5.58724 148.34 6.55406C148.794 7.61223 149.019 8.75739 148.999 9.91166C149.02 11.2393 148.754 12.5556 148.221 13.7678C147.719 14.8904 146.978 15.8857 146.051 16.6819C145.076 17.504 143.96 18.137 142.759 18.5494C141.433 19.0064 140.041 19.2327 138.64 19.2187H136.379L135.359 26H128L131.544 2.00107H139.543ZM137.317 12.7432H138.944C139.619 12.7579 140.28 12.5404 140.818 12.1262C141.08 11.9217 141.289 11.6557 141.427 11.351C141.565 11.0464 141.629 10.7122 141.612 10.3771C141.619 10.1325 141.57 9.88967 141.47 9.66685C141.371 9.44404 141.223 9.24709 141.037 9.09085C140.607 8.74397 140.068 8.56776 139.519 8.59506H137.925L137.317 12.7432Z" fill="white"/>
<path d="M162.372 2L168 26H160.639L159.971 22.7772H152.165L150.597 26H143L155.643 2H162.372ZM155.102 16.5713H158.87L157.835 10.8117L155.102 16.5713Z" fill="white"/>
<path d="M191.533 15.0524C191.316 16.6547 190.799 18.2037 190.01 19.6215C188.558 22.2448 186.171 24.2476 183.308 25.2444C181.881 25.7473 180.376 26.0028 178.86 25.9998C177.288 26.0094 175.728 25.7253 174.264 25.1625C172.862 24.625 171.579 23.8269 170.484 22.8119C169.408 21.8028 168.543 20.596 167.938 19.2597C167.303 17.8525 166.984 16.3275 167.001 14.7883C166.995 13.083 167.378 11.3982 168.121 9.8573C168.848 8.32975 169.857 6.948 171.097 5.78207C172.347 4.61269 173.804 3.67661 175.395 3.01947C176.997 2.34557 178.723 1.99874 180.466 2C181.626 2.00011 182.781 2.13307 183.91 2.39617C185.017 2.64789 186.085 3.04591 187.084 3.57939C188.055 4.09727 188.94 4.75716 189.709 5.53645C190.491 6.32294 191.123 7.24067 191.576 8.24623L184.611 11.2386C184.238 10.415 183.59 9.74186 182.773 9.33172C181.93 8.92672 181.002 8.72226 180.063 8.73483C179.291 8.72862 178.528 8.88533 177.823 9.19438C176.445 9.80517 175.352 10.905 174.763 12.2739C174.195 13.5918 174.155 15.0726 174.653 16.4178C174.876 17.0064 175.217 17.5452 175.655 18.0025C176.094 18.4565 176.623 18.8162 177.21 19.0589C177.835 19.3161 178.507 19.4446 179.185 19.4366C179.952 19.4284 180.714 19.3009 181.441 19.0589C182.234 18.8062 182.921 18.3042 183.396 17.6301H178.36L179.195 11.9755H192L191.533 15.0524Z" fill="white"/>
<path d="M194.487 2H209L208.002 8.72099H200.73L200.463 10.7428H207.735L206.783 17.1883H199.502L199.204 19.2818H206.543L205.58 26H191L194.487 2Z" fill="white"/>
</svg>
