<?xml version="1.0" encoding="UTF-8"?>
<svg width="40px" height="40px" viewBox="0 0 40 40" version="1.1" xmlns="http://www.w3.org/2000/svg" xmlns:xlink="http://www.w3.org/1999/xlink">
    <!-- Generator: Sketch 48.2 (47327) - http://www.bohemiancoding.com/sketch -->
    <title>ico_shopping_bag</title>
    <desc>Created with Sketch.</desc>
    <defs>
        <linearGradient x1="50%" y1="-4.54545455%" x2="50%" y2="102.3725%" id="linearGradient-1">
            <stop stop-color="#7CC0FF" offset="0%"></stop>
            <stop stop-color="#FFA3D7" offset="100%"></stop>
        </linearGradient>
    </defs>
    <g id="Symbols" stroke="none" stroke-width="1" fill="none" fill-rule="evenodd">
        <g id="ico_shopping_bag" fill="url(#linearGradient-1)" fill-rule="nonzero">
            <g id="icons8-shopping_bag" transform="translate(7.000000, 4.000000)">
                <path d="M2.46153846,24.6153846 L2.46153846,28.3076923 C2.46153846,28.9876923 3.01230769,29.5384615 3.69230769,29.5384615 L7.38461538,29.5384615 L2.46153846,24.6153846 Z" id="Shape"></path>
                <rect id="Rectangle-path" x="10.4615385" y="7.38461538" width="4.92307692" height="1.23076923"></rect>
                <path d="M23.3846154,7.38461538 L17.8461538,7.38461538 L17.8461538,5.53846154 L17.8461538,3.07692308 C17.8461538,1.38030769 16.4658462,0 14.7692308,0 L11.0769231,0 C9.38030769,0 8,1.38030769 8,3.07692308 L8,5.53846154 L8,7.38461538 L2.46153846,7.38461538 C1.104,7.38461538 0,8.48861538 0,9.84615385 L0,28.9230769 C0,30.6196923 1.38030769,32 3.07692308,32 L22.7692308,32 C24.4658462,32 25.8461538,30.6196923 25.8461538,28.9230769 L25.8461538,9.84615385 C25.8461538,8.48861538 24.7421538,7.38461538 23.3846154,7.38461538 Z M24.6153846,9.84615385 C24.6153846,10.5249231 24.0633846,11.0769231 23.3846154,11.0769231 L17.8461538,11.0769231 L17.8461538,8.61538462 L23.3846154,8.61538462 C24.0633846,8.61538462 24.6153846,9.16738462 24.6153846,9.84615385 Z M17.2307692,19.0769231 C17.9095385,19.0769231 18.4615385,19.6289231 18.4615385,20.3076923 C18.4615385,20.9864615 17.9095385,21.5384615 17.2307692,21.5384615 C16.552,21.5384615 16,20.9864615 16,20.3076923 C16,19.6289231 16.552,19.0769231 17.2307692,19.0769231 Z M11.0769231,1.23076923 L14.7692308,1.23076923 C15.7870769,1.23076923 16.6153846,2.05907692 16.6153846,3.07692308 L16.6153846,3.09230769 C16.0996923,2.70215385 15.4646154,2.46153846 14.7692308,2.46153846 L11.0769231,2.46153846 C10.3815385,2.46153846 9.74646154,2.70215385 9.23076923,3.09230769 L9.23076923,3.07692308 C9.23076923,2.05907692 10.0590769,1.23076923 11.0769231,1.23076923 Z M8.61538462,19.0769231 C9.29415385,19.0769231 9.84615385,19.6289231 9.84615385,20.3076923 C9.84615385,20.9864615 9.29415385,21.5384615 8.61538462,21.5384615 C7.93661538,21.5384615 7.38461538,20.9864615 7.38461538,20.3076923 C7.38461538,19.6289231 7.93661538,19.0769231 8.61538462,19.0769231 Z M2.46153846,8.61538462 L8,8.61538462 L8,11.0769231 L2.46153846,11.0769231 C1.78276923,11.0769231 1.23076923,10.5249231 1.23076923,9.84615385 C1.23076923,9.16738462 1.78276923,8.61538462 2.46153846,8.61538462 Z M22.7692308,30.7692308 L3.07692308,30.7692308 C2.05907692,30.7692308 1.23076923,29.9409231 1.23076923,28.9230769 L1.23076923,11.9655385 C1.59446154,12.1772308 2.01107692,12.3076923 2.46153846,12.3076923 L8,12.3076923 L8,17.9335385 C6.94153846,18.2086154 6.15384615,19.1636923 6.15384615,20.3076923 C6.15384615,21.6652308 7.25784615,22.7692308 8.61538462,22.7692308 C9.97292308,22.7692308 11.0769231,21.6652308 11.0769231,20.3076923 C11.0769231,19.1636923 10.2892308,18.2086154 9.23076923,17.9335385 L9.23076923,8 L9.23076923,5.53846154 C9.23076923,4.52061538 10.0590769,3.69230769 11.0769231,3.69230769 L14.7692308,3.69230769 C15.7870769,3.69230769 16.6153846,4.52061538 16.6153846,5.53846154 L16.6153846,8 L16.6153846,17.9335385 C15.5569231,18.2086154 14.7692308,19.1636923 14.7692308,20.3076923 C14.7692308,21.6652308 15.8732308,22.7692308 17.2307692,22.7692308 C18.5883077,22.7692308 19.6923077,21.6652308 19.6923077,20.3076923 C19.6923077,19.1636923 18.9046154,18.2086154 17.8461538,17.9335385 L17.8461538,12.3076923 L23.3846154,12.3076923 C23.8350769,12.3076923 24.2516923,12.1772308 24.6153846,11.9655385 L24.6153846,23.3846154 L22.1538462,23.3846154 L22.1538462,24.6153846 L24.6153846,24.6153846 L24.6153846,25.8461538 L20.9230769,25.8461538 L20.9230769,27.0769231 L24.6153846,27.0769231 L24.6153846,28.3076923 L19.6923077,28.3076923 L19.6923077,29.5384615 L24.5021538,29.5384615 C24.2473846,30.2535385 23.5704615,30.7692308 22.7692308,30.7692308 Z" id="Shape"></path>
                <rect id="Rectangle-path" x="10.4615385" y="11.0769231" width="4.92307692" height="1.23076923"></rect>
            </g>
        </g>
    </g>
</svg>