<?xml version="1.0" encoding="UTF-8"?>
<svg width="20px" height="20px" viewBox="0 0 20 20" version="1.1" xmlns="http://www.w3.org/2000/svg" xmlns:xlink="http://www.w3.org/1999/xlink">
    <!-- Generator: Sketch 48.2 (47327) - http://www.bohemiancoding.com/sketch -->
    <title>ico_sm_guide</title>
    <desc>Created with Sketch.</desc>
    <defs>
        <linearGradient x1="50%" y1="-4.54545455%" x2="50%" y2="102.3725%" id="linearGradient-1">
            <stop stop-color="#7CC0FF" offset="0%"></stop>
            <stop stop-color="#FFA3D7" offset="100%"></stop>
        </linearGradient>
    </defs>
    <g id="Symbols" stroke="none" stroke-width="1" fill="none" fill-rule="evenodd">
        <g id="ico_sm_guide" fill="url(#linearGradient-1)" fill-rule="nonzero">
            <path d="M10.1666667,0 C5.1048175,0 1,3.73046917 1,8.33333333 C1,12.9361983 5.1048175,16.6666667 10.1666667,16.6666667 L10.1666667,20 C10.1666667,20 19.3333333,15.5338542 19.3333333,8.33333333 C19.3333333,3.73046917 15.2285158,0 10.1666667,0 Z M11.1855467,12.6041667 L9.14778667,12.6041667 L9.14778667,6.80013 L11.1855467,6.80013 L11.1855467,12.6041667 Z M10.1699217,5.16601583 C9.06640667,5.16601583 9.05989583,4.35221333 9.05989583,4.16341167 C9.05989583,3.97135417 9.05989583,3.1673175 10.1699217,3.1673175 C11.2832033,3.1673175 11.2799483,3.97135417 11.2799483,4.16341167 C11.2799483,4.35221333 11.2734375,5.16601583 10.1699217,5.16601583 Z" id="Shape"></path>
        </g>
    </g>
</svg>