<?xml version="1.0" encoding="UTF-8"?>
<svg width="20px" height="20px" viewBox="0 0 20 20" version="1.1" xmlns="http://www.w3.org/2000/svg" xmlns:xlink="http://www.w3.org/1999/xlink">
    <!-- Generator: Sketch 48.2 (47327) - http://www.bohemiancoding.com/sketch -->
    <title>ico_sm_points</title>
    <desc>Created with Sketch.</desc>
    <defs>
        <linearGradient x1="50%" y1="-4.54545455%" x2="50%" y2="102.3725%" id="linearGradient-1">
            <stop stop-color="#7CC0FF" offset="0%"></stop>
            <stop stop-color="#FFA3D7" offset="100%"></stop>
        </linearGradient>
    </defs>
    <g id="Symbols" stroke="none" stroke-width="1" fill="none" fill-rule="evenodd">
        <g id="ico_sm_points" fill="url(#linearGradient-1)" fill-rule="nonzero">
            <path d="M8.62511041,0.00011443149 C8.05136369,0.00636439573 7.49732395,0.301082751 7.17899243,0.827746404 L7.06831598,1.01085082 C6.91081689,1.27084937 6.63557763,1.42900601 6.33182936,1.43483931 L6.11861433,1.43972207 C5.19611961,1.45888863 4.45891675,2.19567479 4.43975019,3.11858617 L4.43568105,3.33180112 C4.42943108,3.63513268 4.27046074,3.91078872 4.01087889,4.06828782 L3.82777457,4.17815053 C3.03861242,4.65564779 2.76917387,5.66391661 3.21417133,6.47224532 L3.31670978,6.65860508 C3.46295895,6.92485356 3.46295895,7.24196091 3.31670978,7.50820939 L3.21417133,7.6953829 C2.76959054,8.50371161 3.03942624,9.51116668 3.82858835,9.98866395 L4.01087889,10.0993404 C4.27087741,10.2568395 4.42943108,10.5316817 4.43568105,10.8350133 L4.43975019,11.0482283 C4.45891675,11.970723 5.19611961,12.7087396 6.11861433,12.7279062 L6.33182936,12.7319753 C6.63516096,12.7382253 6.91081689,12.8963623 7.06831598,13.1567775 L7.17817869,13.3390681 C7.50026018,13.8711484 8.06341446,14.1667 8.6438278,14.1667 C8.92424287,14.1667 9.20812791,14.0976704 9.47145973,13.9526713 L9.65863325,13.8501327 C9.92446506,13.7034669 10.2428028,13.7034669 10.5090513,13.8501327 L10.6954111,13.9526713 C11.5037398,14.3968354 12.5116115,14.1278136 12.9886921,13.3390681 L13.0993686,13.1559637 C13.2568677,12.8959652 13.5321069,12.7378086 13.8358552,12.7319753 L14.0482565,12.7270924 C14.9707512,12.7079259 15.7087678,11.9711397 15.7279344,11.0482283 L15.7320035,10.8350133 C15.7382535,10.5316817 15.8964101,10.2560258 16.1559919,10.0985267 L16.3390963,9.98866395 C17.1274251,9.51116668 17.3972802,8.50371161 16.9526994,7.6953829 L16.8501608,7.50820939 C16.7039117,7.24196091 16.7039117,6.92485356 16.8501608,6.65860508 L16.9526994,6.47224532 C17.3972802,5.66391661 17.1274447,4.65564779 16.3382825,4.17815053 L16.1559919,4.06828782 C15.8959934,3.91078872 15.7374397,3.63513272 15.7311898,3.33180112 L15.7271206,3.11858617 C15.7079541,2.19609145 14.9707512,1.45888863 14.0482565,1.43972207 L13.8350414,1.43483931 C13.5317098,1.42858934 13.2560539,1.2704522 13.0985548,1.01003703 L12.9886921,0.828560191 C12.6699439,0.30189658 12.1155071,0.00636439573 11.5417604,0.00011443149 C11.255512,-0.00321888277 10.9641595,0.0662273449 10.6954111,0.214143165 L10.5082376,0.31668162 C10.2424057,0.463347448 9.92406798,0.463347448 9.6578195,0.31668162 L9.47145973,0.214143165 C9.20271127,0.0658106806 8.91135877,-0.00280221849 8.62511041,0.00011443149 Z M13.118086,4.20256455 L13.8203932,4.65178032 L9.85719961,10.8464065 L6.3668225,7.70514868 L6.92508764,7.08666222 L9.68467476,9.57037217 L13.118086,4.20256455 Z M14.9222748,13.3927786 C14.655193,13.4944447 14.367428,13.5549848 14.0653464,13.5612348 L13.8521313,13.5653039 C13.8337981,13.5657206 13.8210248,13.5730705 13.8114416,13.5889038 L13.7007651,13.7711944 C13.2824342,14.4628571 12.5815724,14.9012529 11.7924098,14.9837529 L11.6727817,15.2580025 L10.5505552,17.8222783 L11.3936492,19.7501643 C11.4519822,19.8839136 11.5762135,19.9767643 11.720796,19.9959309 C11.7399622,19.9984308 11.7578008,20 11.776134,20 C11.90155,20 12.0220701,19.942917 12.101653,19.8437509 L13.6437992,17.9166786 L16.3602549,17.9166786 C16.5023374,17.9166786 16.6347521,17.8442048 16.7110016,17.7246222 C16.7872512,17.60504 16.7974399,17.4542137 16.7378569,17.3250478 L14.9222748,13.3927786 Z M5.26656838,13.4001028 L3.45586915,17.3250478 C3.39628616,17.4542137 3.40605823,17.6042258 3.48272446,17.7238084 C3.55855736,17.8438078 3.69138864,17.9166786 3.83347116,17.9166786 L6.54992687,17.9166786 L8.09207304,19.8437509 C8.17123926,19.942917 8.29136232,20 8.41677827,20 C8.43469483,20 8.45296931,19.9984308 8.47130254,19.9959309 C8.61588505,19.9767643 8.74011642,19.8839136 8.79844942,19.7501643 L10.9094398,14.9243453 C10.6961077,14.8710123 10.4887714,14.7913386 10.2950225,14.6850892 L10.1062219,14.5817368 C10.0983053,14.5771535 10.0901216,14.5752265 10.0826217,14.5752265 C10.0755384,14.5752265 10.0693988,14.5771535 10.0606489,14.5817368 L9.87347577,14.6842754 C9.49681126,14.8913571 9.07132536,15.0016561 8.6438278,15.0016561 C7.74549961,15.0016561 6.93151968,14.5415871 6.46610568,13.7720081 L6.35542923,13.5889038 C6.34584595,13.5730705 6.33348936,13.5657206 6.31473946,13.5653039 L6.10152443,13.5612348 C5.80777611,13.5549848 5.52740022,13.4967689 5.26656838,13.4001028 Z" id="Shape"></path>
        </g>
    </g>
</svg>