<?xml version="1.0" encoding="UTF-8"?>
<svg width="20px" height="20px" viewBox="0 0 20 20" version="1.1" xmlns="http://www.w3.org/2000/svg" xmlns:xlink="http://www.w3.org/1999/xlink">
    <!-- Generator: Sketch 48.2 (47327) - http://www.bohemiancoding.com/sketch -->
    <title>ico_sm_wish</title>
    <desc>Created with Sketch.</desc>
    <defs>
        <linearGradient x1="50%" y1="-4.54545455%" x2="50%" y2="102.3725%" id="linearGradient-1">
            <stop stop-color="#7CC0FF" offset="0%"></stop>
            <stop stop-color="#FFA3D7" offset="100%"></stop>
        </linearGradient>
    </defs>
    <g id="Symbols" stroke="none" stroke-width="1" fill="none" fill-rule="evenodd">
        <g id="ico_sm_wish" fill-rule="nonzero" stroke="url(#linearGradient-1)" stroke-width="2">
            <path d="M10,17.1426762 C10.3071711,16.9570907 10.646271,16.7429091 11.0097168,16.5018187 C12.144649,15.7489655 13.2796095,14.8931788 14.3351564,13.9537008 C17.2675284,11.3437752 19,8.62359186 19,6 C19,3.75150375 17.2484963,2 15,2 C14.0315437,2 13.028747,2.43881912 12.0637959,3.18962745 C11.71186,3.46346144 11.3916911,3.75848912 11.1117082,4.05262499 C10.9473357,4.22530637 10.836544,4.35463851 10.7865086,4.41836037 L10,5.42000606 L9.21349144,4.41836037 C9.16345599,4.35463851 9.05266427,4.22530637 8.8882918,4.05262499 C8.60830886,3.75848912 8.28814,3.46346144 7.93620408,3.18962745 C6.97125295,2.43881912 5.96845634,2 5,2 C2.75150375,2 1,3.75150375 1,6 C1,8.62359186 2.73247155,11.3437752 5.66484364,13.9537008 C6.72039053,14.8931788 7.85535098,15.7489655 8.99028318,16.5018187 C9.353729,16.7429091 9.69282891,16.9570907 10,17.1426762 Z" id="Shape"></path>
        </g>
    </g>
</svg>