<?xml version="1.0" encoding="UTF-8"?>
<svg width="40px" height="40px" viewBox="0 0 40 40" version="1.1" xmlns="http://www.w3.org/2000/svg" xmlns:xlink="http://www.w3.org/1999/xlink">
    <!-- Generator: Sketch 48.2 (47327) - http://www.bohemiancoding.com/sketch -->
    <title>ico_search</title>
    <desc>Created with Sketch.</desc>
    <defs>
        <linearGradient x1="50%" y1="-4.54545455%" x2="50%" y2="102.3725%" id="linearGradient-1">
            <stop stop-color="#7CC0FF" offset="0%"></stop>
            <stop stop-color="#FFA3D7" offset="100%"></stop>
        </linearGradient>
    </defs>
    <g id="Symbols" stroke="none" stroke-width="1" fill="none" fill-rule="evenodd">
        <g id="ico_search" fill="url(#linearGradient-1)">
            <path d="M24.6927398,22.3842603 L31,28.7041602 L28.7041602,31 L22.3842603,24.6927398 C21.1251209,25.519249 19.6187032,26 18,26 C13.581722,26 10,22.418278 10,18 C10,13.581722 13.581722,10 18,10 C22.418278,10 26,13.581722 26,18 C26,19.6187032 25.519249,21.1251209 24.6927398,22.3842603 Z M18,23 C20.7614237,23 23,20.7614237 23,18 C23,15.2385763 20.7614237,13 18,13 C15.2385763,13 13,15.2385763 13,18 C13,20.7614237 15.2385763,23 18,23 Z" id="search-icon"></path>
        </g>
    </g>
</svg>