<?xml version="1.0" encoding="UTF-8"?>
<svg width="126px" height="56px" viewBox="0 0 126 56" version="1.1" xmlns="http://www.w3.org/2000/svg" xmlns:xlink="http://www.w3.org/1999/xlink">
    <!-- Generator: Sketch 48.2 (47327) - http://www.bohemiancoding.com/sketch -->
    <title>logo</title>
    <desc>Created with Sketch.</desc>
    <defs>
        <polygon id="path-1" points="0 55.9468509 125.34439 55.9468509 125.34439 1.01797818 0 1.01797818"></polygon>
    </defs>
    <g id="Symbols" stroke="none" stroke-width="1" fill="none" fill-rule="evenodd">
        <g id="logo">
            <g>
                <polygon id="Fill-1" fill="#FFA3D7" points="0.7938 47.7811345 0.7938 54.05008 5.55926341 54.05008 5.55926341 52.9229527 2.07736098 52.9229527 2.07736098 51.3111709 5.13209268 51.3111709 5.13209268 50.2227345 2.07736098 50.2227345 2.07736098 48.8909527 5.40560488 48.8909527 5.40560488 47.7811345"></polygon>
                <polygon id="Fill-2" fill="#FFA3D7" points="10.2245415 49.4152145 11.5296146 49.4152145 9.85166341 54.0499782 8.56912683 54.0499782 6.90039512 49.4152145 8.26590732 49.4152145 9.23498049 52.8332509"></polygon>
                <path d="M14.3050976,50.55568 C14.133,50.7318255 14.025439,50.9710982 13.9813902,51.2734982 L16.0762683,51.2734982 C16.0537317,50.9517527 15.9461707,50.7073891 15.7515366,50.5404073 C15.5589512,50.3734255 15.3171951,50.2909527 15.0303659,50.2909527 C14.7179268,50.2909527 14.4761707,50.3785164 14.3050976,50.55568 M16.1233902,49.5089891 C16.4491463,49.6535709 16.7165122,49.8826618 16.928561,50.1952436 C17.1180732,50.4701527 17.2420244,50.7888436 17.2983659,51.1523345 C17.3311463,51.3661527 17.3444634,51.6726255 17.3383171,52.0727709 L13.9506585,52.0727709 C13.970122,52.5370618 14.1319756,52.8638982 14.4372439,53.0502255 C14.6236829,53.1662982 14.8459756,53.2253527 15.1082195,53.2253527 C15.3848049,53.2253527 15.6091463,53.15408 15.7832927,53.0125527 C15.8775366,52.9361891 15.9605122,52.82928 16.0332439,52.6938618 L17.2748049,52.6938618 C17.2420244,52.9687709 17.0924634,53.2487709 16.8240732,53.5318255 C16.4081707,53.9818618 15.8242683,54.2078982 15.0744146,54.2078982 C14.4546585,54.2078982 13.9086585,54.0174982 13.4353902,53.6366982 C12.962122,53.2569164 12.7265122,52.63888 12.7265122,51.7815709 C12.7265122,50.9782255 12.9395854,50.3632436 13.3667561,49.9345891 C13.7939268,49.5059345 14.3491463,49.2910982 15.0303659,49.2910982 C15.4360244,49.2910982 15.7996829,49.3633891 16.1233902,49.5089891" id="Fill-3" fill="#FFA3D7"></path>
                <path d="M21.4107805,49.3067782 C21.4271707,49.3077964 21.462,49.3098327 21.5162927,49.3128873 L21.5162927,50.5550691 C21.438439,50.5459055 21.3708293,50.5408145 21.3103902,50.53776 C21.2509756,50.5347055 21.2028293,50.5326691 21.1659512,50.5326691 C20.6762927,50.5326691 20.3474634,50.6915055 20.1804878,51.0091782 C20.0862439,51.1883782 20.039122,51.4632873 20.039122,51.8339055 L20.039122,54.0494691 L18.8149756,54.0494691 L18.8149756,49.4147055 L19.9756098,49.4147055 L19.9756098,50.2221236 C20.1630732,49.9136145 20.3259512,49.7028509 20.4652683,49.5888145 C20.6937073,49.3994327 20.9897561,49.3037236 21.3534146,49.3037236 C21.3759512,49.3037236 21.3954146,49.3047418 21.4107805,49.3067782" id="Fill-5" fill="#FFA3D7"></path>
                <path d="M23.2855171,54.9386473 L23.4381512,54.9478109 C23.5590293,54.95392 23.6727366,54.9488291 23.7802976,54.9345745 C23.8888829,54.92032 23.9800537,54.8877382 24.0538098,54.8368291 C24.1244927,54.7889745 24.191078,54.6881745 24.2515171,54.5354473 C24.3129805,54.3817018 24.3385902,54.2880291 24.3314195,54.2544291 L22.6227366,49.4150109 L23.9749317,49.4150109 L24.9901024,52.8340655 L25.9509805,49.4150109 L27.2427366,49.4150109 L25.6487854,53.9734109 C25.3404439,54.8521018 25.096639,55.3978473 24.9173707,55.6086109 C24.7381024,55.8193745 24.3785415,55.9262836 23.8407366,55.9262836 C23.7331756,55.9262836 23.6461024,55.9252655 23.5805415,55.9242473 C23.5149805,55.9222109 23.416639,55.91712 23.2855171,55.9079564 L23.2855171,54.9386473 Z" id="Fill-7" fill="#FFA3D7"></path>
                <polygon id="Fill-9" fill="#FFA3D7" points="40.1079512 47.7815418 40.1079512 48.89136 38.2261463 48.89136 38.2261463 54.0494691 36.9026341 54.0494691 36.9026341 48.89136 35.0126341 48.89136 35.0126341 47.7815418"></polygon>
                <path d="M44.9937805,49.4400582 C45.2273415,49.53984 45.4189024,49.6915491 45.5694878,49.8951855 C45.6975366,50.0692945 45.7753902,50.2474764 45.8030488,50.4307491 C45.8307073,50.6130036 45.8450488,50.9113309 45.8450488,51.3267491 L45.8450488,54.0493673 L44.6034878,54.0493673 L44.6034878,51.2279855 C44.6034878,50.9775127 44.5614878,50.7759127 44.4764634,50.6231855 C44.3668537,50.4073309 44.157878,50.2994036 43.850561,50.2994036 C43.5309512,50.2994036 43.2891951,50.4063127 43.1242683,50.6211491 C42.9583171,50.8349673 42.8763659,51.14144 42.8763659,51.5385309 L42.8763659,54.0493673 L41.6593902,54.0493673 L41.6593902,47.80384 L42.8763659,47.80384 L42.8763659,50.0143127 C43.0515366,49.7455127 43.2553902,49.5571491 43.4848537,49.4512582 C43.7163659,49.3443491 43.9591463,49.2914036 44.2142195,49.2914036 C44.5010488,49.2914036 44.7591951,49.3412945 44.9937805,49.4400582" id="Fill-11" fill="#FFA3D7"></path>
                <mask id="mask-2" fill="white">
                    <use xlink:href="#path-1"></use>
                </mask>
                <g id="Clip-14"></g>
                <path d="M47.88,54.0499782 L49.1133659,54.0499782 L49.1133659,49.4152145 L47.88,49.4152145 L47.88,54.0499782 Z M47.88,48.8623418 L49.1133659,48.8623418 L49.1133659,47.74336 L47.88,47.74336 L47.88,48.8623418 Z" id="Fill-13" fill="#FFA3D7" mask="url(#mask-2)"></path>
                <path d="M54.9155122,49.6806545 C55.2197561,49.9311273 55.3713659,50.3475636 55.3713659,50.9289455 L55.3713659,54.0496727 L54.1257073,54.0496727 L54.1257073,51.2303273 C54.1257073,50.9869818 54.0929268,50.7996364 54.0283902,50.6693091 C53.9105854,50.4310545 53.6841951,50.3119273 53.3512683,50.3119273 C52.9415122,50.3119273 52.6608293,50.4860364 52.5071707,50.8352727 C52.4282927,51.0185455 52.3893659,51.2547636 52.3893659,51.5408727 L52.3893659,54.0496727 L51.1734146,54.0496727 L51.1734146,49.4230545 L52.350439,49.4230545 L52.350439,50.0991273 C52.5061463,49.8618909 52.6536585,49.6898182 52.7929756,49.5849455 C53.0419024,49.3976 53.3574146,49.3039273 53.7405366,49.3039273 C54.2189268,49.3039273 54.6102439,49.4291636 54.9155122,49.6806545" id="Fill-15" fill="#FFA3D7" mask="url(#mask-2)"></path>
                <path d="M60.0915512,52.7341818 C60.2861854,52.5203636 60.3845268,52.1792727 60.3845268,51.7109091 C60.3845268,51.2710545 60.2913073,50.9370909 60.1069171,50.708 C59.920478,50.4778909 59.6725756,50.3628364 59.361161,50.3628364 C58.936039,50.3628364 58.6430634,50.5624 58.4812098,50.9625455 C58.3961854,51.1753455 58.3541854,51.4380364 58.3541854,51.7496 C58.3541854,52.0194182 58.3992585,52.2576727 58.4904293,52.4674182 C58.6543317,52.8594182 58.9483317,53.0549091 59.3734537,53.0549091 C59.6561854,53.0549091 59.8969171,52.948 60.0915512,52.7341818 M59.6776976,49.4098182 C59.972722,49.532 60.2114049,49.756 60.3937463,50.0828364 L60.3937463,49.4149091 L61.5789659,49.4149091 L61.5789659,53.8124364 C61.5789659,54.4101091 61.4785756,54.8611636 61.2767707,55.1645818 C60.9295024,55.6858909 60.2636488,55.9465455 59.2792098,55.9465455 C58.6850634,55.9465455 58.1995024,55.8304727 57.8245756,55.5983273 C57.4496488,55.3661818 57.2416976,55.0179636 57.2017463,54.5557091 L58.5252585,54.5557091 C58.5590634,54.6982545 58.6143805,54.8000727 58.6912098,54.8621818 C58.8223317,54.9731636 59.0425756,55.0281455 59.3519415,55.0281455 C59.7903805,55.0281455 60.0833561,54.8815273 60.2318927,54.5903273 C60.327161,54.404 60.3763317,54.0883636 60.3763317,53.6464727 L60.3763317,53.3491636 C60.2595512,53.5466909 60.1345756,53.6953455 60.0003805,53.7951273 C59.7586244,53.9794182 59.4441366,54.0710545 59.0579415,54.0710545 C58.4596976,54.0710545 57.9823317,53.8623273 57.6268683,53.4438545 C57.2693561,53.0264 57.0900878,52.4592727 57.0900878,51.7445091 C57.0900878,51.0562182 57.2621854,50.4768727 57.6063805,50.0074909 C57.9495512,49.5381091 58.437161,49.3039273 59.0681854,49.3039273 C59.3017463,49.3039273 59.5045756,49.3395636 59.6776976,49.4098182" id="Fill-16" fill="#FFA3D7" mask="url(#mask-2)"></path>
                <path d="M64.5312585,52.5701527 C64.5568683,52.7860073 64.6132098,52.9387345 64.6982341,53.0293527 C64.8508683,53.1902255 65.1305268,53.27168 65.5382341,53.27168 C65.7789659,53.27168 65.9695024,53.2360436 66.1118927,53.1657891 C66.2532585,53.0955345 66.3239415,52.9886255 66.3239415,52.84608 C66.3239415,52.7106618 66.2665756,52.6068073 66.1528683,52.5365527 C66.039161,52.46528 65.6150634,52.3430982 64.8805756,52.1700073 C64.3519902,52.03968 63.9801366,51.8767709 63.7639902,51.68128 C63.5468195,51.4888436 63.4392585,51.21088 63.4392585,50.8484073 C63.4392585,50.4197527 63.6082829,50.0511709 63.9463317,49.7446982 C64.2843805,49.4372073 64.7596976,49.2824436 65.3712585,49.2824436 C65.9541366,49.2824436 66.4274049,49.3985164 66.7941366,49.6286255 C67.1598439,49.8607709 67.3698439,50.25888 67.4241366,50.8270255 L66.2092098,50.8270255 C66.1907707,50.6712436 66.146722,50.5480436 66.076039,50.4564073 C65.9418439,50.29248 65.7134049,50.2100073 65.3917463,50.2100073 C65.1254049,50.2100073 64.9369171,50.2517527 64.8242341,50.3332073 C64.7115512,50.41568 64.6552098,50.5124073 64.6552098,50.6223709 C64.6552098,50.7618618 64.7156488,50.8616436 64.8355024,50.9247709 C64.9543317,50.9889164 65.3774049,51.1019345 66.104722,51.2607709 C66.5892585,51.3737891 66.9518927,51.5448436 67.1946732,51.7749527 C67.4333561,52.0070982 67.5521854,52.29728 67.5521854,52.6465164 C67.5521854,53.1057164 67.3800878,53.4814255 67.0369171,53.7716073 C66.6937463,54.0628073 66.1631122,54.2073891 65.4450146,54.2073891 C64.7125756,54.2073891 64.1706732,54.0536436 63.8223805,53.7461527 C63.4730634,53.4386618 63.2989171,53.0466618 63.2989171,52.5701527 L64.5312585,52.5701527 Z" id="Fill-17" fill="#FFA3D7" mask="url(#mask-2)"></path>
                <path d="M77.850278,47.7248291 C77.9127659,47.7289018 77.9988146,47.7350109 78.1063756,47.7441745 L78.1063756,48.7297745 C78.0387659,48.7216291 77.9230098,48.71552 77.7632049,48.7114473 C77.6023756,48.7073745 77.4907171,48.7419927 77.430278,48.8173382 C77.3688146,48.8916655 77.3380829,48.9761745 77.3380829,49.0657745 L77.3380829,49.4567564 L78.1360829,49.4567564 L78.1360829,50.3120291 L77.3380829,50.3120291 L77.3380829,54.0497745 L76.1303268,54.0497745 L76.1303268,50.3120291 L75.4480829,50.3120291 L75.4480829,49.4567564 L76.1139366,49.4567564 L76.1139366,49.1594473 C76.1139366,48.6635927 76.1979366,48.3214836 76.3659366,48.1341382 C76.5421317,47.8571927 76.9672537,47.7177018 77.6413024,47.7177018 C77.7181317,47.7177018 77.7867659,47.7197382 77.850278,47.7248291" id="Fill-18" fill="#FFA3D7" mask="url(#mask-2)"></path>
                <path d="M82.6160488,52.8127855 C82.8065854,52.5612945 82.9008293,52.2028945 82.9008293,51.7386036 C82.9008293,51.2743127 82.8065854,50.9179491 82.6160488,50.6674764 C82.4244878,50.4159855 82.152,50.2907491 81.7965366,50.2907491 C81.4410732,50.2907491 81.1665366,50.4159855 80.9739512,50.6674764 C80.7834146,50.9179491 80.687122,51.2743127 80.687122,51.7386036 C80.687122,52.2028945 80.7834146,52.5612945 80.9739512,52.8127855 C81.1665366,53.0652945 81.4410732,53.1905309 81.7965366,53.1905309 C82.152,53.1905309 82.4244878,53.0652945 82.6160488,52.8127855 M83.5881951,53.4827491 C83.1958537,53.9663855 82.5996585,54.2076945 81.8006341,54.2076945 C81.0016098,54.2076945 80.4054146,53.9663855 80.0130732,53.4827491 C79.6197073,53.0001309 79.4240488,52.4187491 79.4240488,51.7386036 C79.4240488,51.0706764 79.6197073,50.4913309 80.0130732,50.0005673 C80.4054146,49.5108218 81.0016098,49.2664582 81.8006341,49.2664582 C82.5996585,49.2664582 83.1958537,49.5108218 83.5881951,50.0005673 C83.9805366,50.4913309 84.1772195,51.0706764 84.1772195,51.7386036 C84.1772195,52.4187491 83.9805366,53.0001309 83.5881951,53.4827491" id="Fill-19" fill="#FFA3D7" mask="url(#mask-2)"></path>
                <path d="M88.5053707,49.3067782 C88.5207366,49.3077964 88.5555659,49.3098327 88.6098585,49.3128873 L88.6098585,50.5550691 C88.5330293,50.5459055 88.4643951,50.5408145 88.4049805,50.53776 C88.3455659,50.5347055 88.2963951,50.5326691 88.2605415,50.5326691 C87.7698585,50.5326691 87.4420537,50.6915055 87.2740537,51.0091782 C87.1798098,51.1883782 87.1337122,51.4632873 87.1337122,51.8339055 L87.1337122,54.0494691 L85.9085415,54.0494691 L85.9085415,49.4147055 L87.0702,49.4147055 L87.0702,50.2221236 C87.256639,49.9136145 87.4205415,49.7028509 87.5598585,49.5888145 C87.7882976,49.3994327 88.083322,49.3037236 88.4469805,49.3037236 C88.4705415,49.3037236 88.4889805,49.3047418 88.5053707,49.3067782" id="Fill-20" fill="#FFA3D7" mask="url(#mask-2)"></path>
                <path d="M102.602722,49.4321164 C102.801454,49.5105164 102.982771,49.6500073 103.144624,49.8485527 C103.275746,50.0094255 103.363844,50.2089891 103.408917,50.4441891 C103.4376,50.5989527 103.451941,50.8280436 103.451941,51.1284073 L103.442722,54.0495709 L102.197063,54.0495709 L102.197063,51.09888 C102.197063,50.9237527 102.169405,50.7781527 102.112039,50.6651345 C102.004478,50.44928 101.805746,50.3423709 101.51482,50.3423709 C101.17882,50.3423709 100.947307,50.4808436 100.819259,50.7588073 C100.753698,50.9054255 100.720917,51.0836073 100.720917,51.2902982 L100.720917,54.0495709 L99.4967707,54.0495709 L99.4967707,51.2902982 C99.4967707,51.0153891 99.4680878,50.8148073 99.4117463,50.6905891 C99.3082829,50.4676073 99.1085268,50.3545891 98.8094049,50.3545891 C98.4621366,50.3545891 98.2285756,50.4676073 98.1097463,50.6905891 C98.0441854,50.8178618 98.0124293,51.0082618 98.0124293,51.2607709 L98.0124293,54.0495709 L96.778039,54.0495709 L96.778039,49.4229527 L97.9612098,49.4229527 L97.9612098,50.0990255 C98.1107707,49.8587345 98.253161,49.6866618 98.3873561,49.5848436 C98.6229659,49.4036073 98.9292585,49.3129891 99.3041854,49.3129891 C99.6596488,49.3129891 99.9475024,49.3903709 100.166722,49.5461527 C100.342917,49.6907345 100.477112,49.8770618 100.568283,50.1041164 C100.727063,49.8322618 100.923746,49.63168 101.16038,49.5033891 C101.411356,49.3761164 101.688966,49.3129891 101.996283,49.3129891 C102.201161,49.3129891 102.40399,49.3526982 102.602722,49.4321164" id="Fill-21" fill="#FFA3D7" mask="url(#mask-2)"></path>
                <path d="M108.349859,52.8127855 C108.540395,52.5612945 108.635663,52.2028945 108.635663,51.7386036 C108.635663,51.2743127 108.540395,50.9179491 108.349859,50.6674764 C108.158298,50.4159855 107.88581,50.2907491 107.530346,50.2907491 C107.174883,50.2907491 106.901371,50.4159855 106.708785,50.6674764 C106.517224,50.9179491 106.420932,51.2743127 106.420932,51.7386036 C106.420932,52.2028945 106.517224,52.5612945 106.708785,52.8127855 C106.901371,53.0652945 107.174883,53.1905309 107.530346,53.1905309 C107.88581,53.1905309 108.158298,53.0652945 108.349859,52.8127855 M109.322005,53.4827491 C108.929663,53.9663855 108.333468,54.2076945 107.534444,54.2076945 C106.73542,54.2076945 106.139224,53.9663855 105.746883,53.4827491 C105.353517,53.0001309 105.157859,52.4187491 105.157859,51.7386036 C105.157859,51.0706764 105.353517,50.4913309 105.746883,50.0005673 C106.139224,49.5108218 106.73542,49.2664582 107.534444,49.2664582 C108.333468,49.2664582 108.929663,49.5108218 109.322005,50.0005673 C109.715371,50.4913309 109.911029,51.0706764 109.911029,51.7386036 C109.911029,52.4187491 109.715371,53.0001309 109.322005,53.4827491" id="Fill-22" fill="#FFA3D7" mask="url(#mask-2)"></path>
                <path d="M117.458327,49.4321164 C117.657059,49.5105164 117.838376,49.6500073 118.000229,49.8485527 C118.131351,50.0094255 118.219449,50.2089891 118.264522,50.4441891 C118.293205,50.5989527 118.307546,50.8280436 118.307546,51.1284073 L118.298327,54.0495709 L117.052668,54.0495709 L117.052668,51.09888 C117.052668,50.9237527 117.02501,50.7781527 116.967644,50.6651345 C116.860083,50.44928 116.661351,50.3423709 116.370424,50.3423709 C116.034424,50.3423709 115.802912,50.4808436 115.674863,50.7588073 C115.609302,50.9054255 115.576522,51.0836073 115.576522,51.2902982 L115.576522,54.0495709 L114.352376,54.0495709 L114.352376,51.2902982 C114.352376,51.0153891 114.323693,50.8148073 114.267351,50.6905891 C114.163888,50.4676073 113.964132,50.3545891 113.66501,50.3545891 C113.317741,50.3545891 113.08418,50.4676073 112.965351,50.6905891 C112.89979,50.8178618 112.868034,51.0082618 112.868034,51.2607709 L112.868034,54.0495709 L111.633644,54.0495709 L111.633644,49.4229527 L112.816815,49.4229527 L112.816815,50.0990255 C112.966376,49.8587345 113.108766,49.6866618 113.242961,49.5848436 C113.478571,49.4036073 113.784863,49.3129891 114.15979,49.3129891 C114.516278,49.3129891 114.803107,49.3903709 115.022327,49.5461527 C115.198522,49.6907345 115.332717,49.8770618 115.423888,50.1041164 C115.582668,49.8322618 115.779351,49.63168 116.01701,49.5033891 C116.266961,49.3761164 116.544571,49.3129891 116.852912,49.3129891 C117.056766,49.3129891 117.259595,49.3526982 117.458327,49.4321164" id="Fill-23" fill="#FFA3D7" mask="url(#mask-2)"></path>
                <path d="M121.242834,52.5701527 C121.268444,52.7860073 121.323761,52.9387345 121.40981,53.0293527 C121.56142,53.1902255 121.841078,53.27168 122.24981,53.27168 C122.490541,53.27168 122.681078,53.2360436 122.822444,53.1657891 C122.96381,53.0955345 123.034493,52.9886255 123.034493,52.84608 C123.034493,52.7106618 122.977127,52.6068073 122.86342,52.5365527 C122.749712,52.46528 122.325615,52.3430982 121.592151,52.1700073 C121.062541,52.03968 120.690688,51.8767709 120.474541,51.68128 C120.258395,51.4888436 120.150834,51.21088 120.150834,50.8484073 C120.150834,50.4197527 120.319859,50.0511709 120.656883,49.7446982 C120.994932,49.4372073 121.470249,49.2824436 122.082834,49.2824436 C122.664688,49.2824436 123.13898,49.3985164 123.504688,49.6286255 C123.870395,49.8607709 124.08142,50.25888 124.135712,50.8270255 L122.919761,50.8270255 C122.902346,50.6712436 122.858298,50.5480436 122.78659,50.4564073 C122.652395,50.29248 122.423956,50.2100073 122.102298,50.2100073 C121.83698,50.2100073 121.648493,50.2517527 121.534785,50.3332073 C121.423127,50.41568 121.366785,50.5124073 121.366785,50.6223709 C121.366785,50.7618618 121.4262,50.8616436 121.546054,50.9247709 C121.665907,50.9889164 122.08898,51.1019345 122.815273,51.2607709 C123.300834,51.3737891 123.663468,51.5448436 123.905224,51.7749527 C124.143907,52.0070982 124.263761,52.29728 124.263761,52.6465164 C124.263761,53.1057164 124.091663,53.4814255 123.748493,53.7716073 C123.404298,54.0628073 122.874688,54.2073891 122.15659,54.2073891 C121.423127,54.2073891 120.882249,54.0536436 120.533956,53.7461527 C120.184639,53.4386618 120.009468,53.0466618 120.009468,52.5701527 L121.242834,52.5701527 Z" id="Fill-24" fill="#FFA3D7" mask="url(#mask-2)"></path>
                <path d="M53.5449805,21.8855127 C51.5320537,23.1531491 51.6980049,25.3330764 51.6980049,25.3361309 C51.6980049,25.3361309 51.5597122,26.0671855 51.3486878,26.3319127 C50.3417122,27.6148218 50.2853707,30.0340218 51.4613707,31.17744 C51.9223463,31.6295127 52.7684927,31.69264 53.601322,31.9930036 C52.8104927,32.6476945 52.0135171,33.3176582 51.0475171,34.1189673 C50.6920537,31.0511855 48.551078,29.3579491 46.5934683,27.5455855 C45.1664927,26.2138036 44.2926878,24.6183127 44.5221512,22.6379491 C44.6000049,21.9832582 45.1388341,21.3835491 45.466639,20.7563491 C45.9501512,21.0913309 46.4531268,21.4039127 46.9212732,21.7602764 C47.5932732,22.2754764 48.1812732,22.9240582 48.9219073,23.2865309 C49.265078,23.46064 50.2853707,23.1338036 50.3068829,22.9515491 C50.4113707,22.0524945 51.7891756,21.2236945 52.8320049,20.6586036 C53.139322,20.10064 53.2724927,19.69744 53.4189805,19.6903127 C54.622639,19.6200582 54.4402976,18.9083491 54.4894683,18.0378036 C54.5519561,17.0623855 54.8736146,16.0024582 55.3847854,15.1594036 C56.615078,13.1372945 56.7134195,11.2618036 55.3079561,9.47082182 C53.9998098,13.0395491 50.7965415,13.9039855 47.7049317,14.8234036 C43.4742,16.0859491 40.2565902,18.4837673 38.746639,22.6796945 C38.1104927,24.4299491 38.019322,26.3665309 37.654639,28.3397673 C36.8996634,23.9279855 38.061322,20.0242764 40.2074195,16.2244218 C39.9421024,16.5604218 39.6276146,16.8587491 39.4104439,17.2151127 C35.7031756,23.4677673 34.8017122,29.8945309 38.4454683,36.4811491 C39.6132732,38.6010036 41.4735659,40.1415127 43.8163463,40.7473309 C46.3414683,41.40304 48.0409317,41.0884218 49.5232244,39.61104 C48.6699073,41.6117673 45.466639,42.3927127 42.5368829,42.14224 C42.5522488,42.1473309 46.9806878,43.9322036 48.3564439,43.6196218 C50.2577122,43.1797673 57.843322,38.5460218 58.3073707,38.1336582 C60.1400049,36.1960582 59.8951756,34.7319127 59.3358585,32.0968582 C59.2026878,31.43504 59.5673707,30.5991127 59.8880049,29.9362764 C60.2875171,29.1420945 60.951322,28.4863855 61.384639,27.6983127 C62.6518098,25.3850036 61.3774683,23.5716218 60.3151756,22.3100945 C59.2590293,21.0424582 55.5527854,20.6168582 53.5449805,21.8855127" id="Fill-25" fill="#FFFFFF" mask="url(#mask-2)"></path>
                <path d="M102.257605,11.2413382 C102.92858,11.2413382 103.487898,11.0183564 103.943751,10.5723927 C104.390385,10.1182836 104.614727,9.56235636 104.614727,8.89239273 C104.614727,8.24482909 104.390385,7.69399273 103.943751,7.23275636 C103.424385,6.70839273 102.7698,6.48337455 101.967702,6.55668364 C101.562044,6.59435636 101.171751,6.75013818 100.853166,7.00264727 C100.219068,7.50562909 99.9004829,8.13181091 99.9004829,8.89239273 C99.9004829,9.56235636 100.131995,10.1182836 100.592971,10.5723927 C101.053946,11.0183564 101.607117,11.2413382 102.257605,11.2413382" id="Fill-26" fill="#FFA3D7" mask="url(#mask-2)"></path>
                <path d="M116.462005,11.2413382 C117.13298,11.2413382 117.693322,11.0183564 118.14098,10.5723927 C118.594785,10.1182836 118.819127,9.56235636 118.819127,8.89239273 C118.819127,8.24482909 118.594785,7.69399273 118.14098,7.23275636 C117.693322,6.77253818 117.13298,6.54344727 116.462005,6.54344727 C115.811517,6.54344727 115.2522,6.77253818 114.797371,7.23275636 C114.336395,7.69399273 114.104883,8.24482909 114.104883,8.89239273 C114.104883,9.56235636 114.336395,10.1182836 114.797371,10.5723927 C115.2522,11.0183564 115.811517,11.2413382 116.462005,11.2413382" id="Fill-27" fill="#FFA3D7" mask="url(#mask-2)"></path>
                <polygon id="Fill-28" fill="#000000" mask="url(#mask-2)" points="112.349385 26.79936 112.636215 26.1996509 112.327873 26.7851055"></polygon>
                <path d="M61.3850488,27.6983127 C60.9517317,28.4863855 60.2879268,29.1420945 59.8884146,29.9362764 C59.5677805,30.5991127 59.2030976,31.43504 59.3362683,32.0968582 C59.8955854,34.7319127 60.1404146,36.1960582 58.3077805,38.1336582 C57.8437317,38.5460218 50.258122,43.1797673 48.3558293,43.6196218 C46.9800732,43.9322036 42.5516341,42.1473309 42.5372927,42.14224 C45.4670488,42.3927127 48.6703171,41.6117673 49.5236341,39.61104 C48.0413415,41.0884218 46.3408537,41.40304 43.8167561,40.7473309 C41.4739756,40.1415127 39.6136829,38.6010036 38.4448537,36.4811491 C34.802122,29.8945309 35.7035854,23.4677673 39.4108537,17.2151127 C39.6280244,16.8587491 39.9414878,16.5604218 40.2078293,16.2244218 C38.0607073,20.0242764 36.9000732,23.9279855 37.6550488,28.3397673 C38.0187073,26.3665309 38.109878,24.4299491 38.7460244,22.6796945 C40.257,18.4837673 43.4746098,16.0859491 47.7053415,14.8234036 C50.7969512,13.9039855 54.0002195,13.0405673 55.3073415,9.47082182 C56.7128049,11.2618036 56.6154878,13.1372945 55.3851951,15.1594036 C54.8740244,16.0024582 54.5523659,17.0623855 54.489878,18.0378036 C54.4407073,18.9083491 54.6220244,19.6200582 53.4193902,19.6903127 C53.2729024,19.69744 53.1397317,20.10064 52.8313902,20.6586036 C51.7895854,21.2236945 50.4117805,22.0524945 50.3072927,22.9515491 C50.2857805,23.1338036 49.2654878,23.46064 48.9223171,23.2865309 C48.1806585,22.9240582 47.5936829,22.2754764 46.9216829,21.7602764 C46.4535366,21.4039127 45.950561,21.0913309 45.4670488,20.7563491 C45.1392439,21.3835491 44.5993902,21.9832582 44.522561,22.6379491 C44.2920732,24.6183127 45.1669024,26.2138036 46.593878,27.5455855 C48.5514878,29.3579491 50.6924634,31.0511855 51.0479268,34.1189673 C52.0139268,33.3176582 52.8109024,32.6476945 53.6007073,31.9930036 C52.7689024,31.69264 51.9227561,31.6295127 51.4607561,31.17744 C50.2857805,30.0340218 50.342122,27.6148218 51.3490976,26.3319127 C51.5590976,26.0671855 51.6984146,25.3361309 51.6984146,25.3361309 C51.6984146,25.3330764 51.5324634,23.1531491 53.5453902,21.8855127 C55.5531951,20.6168582 59.259439,21.0424582 60.3155854,22.3100945 C61.377878,23.5716218 62.6511951,25.3850036 61.3850488,27.6983127 M122.98778,30.3119855 C122.31578,31.4696582 121.72061,32.3829673 121.204317,33.05904 C120.687,33.74224 120.238317,34.2156945 119.854171,34.4804218 C119.469,34.7461673 119.126854,34.8856582 118.818512,34.8856582 C118.588024,34.8856582 118.364707,34.8367855 118.140366,34.73904 C117.923195,34.6412945 117.72139,34.4244218 117.539049,34.0772218 C117.357732,33.7351127 117.21022,33.2127855 117.09139,32.5153309 C116.979732,31.8188945 116.924415,30.8699491 116.924415,29.6644218 C116.924415,28.0058036 116.966415,26.39504 117.04939,24.8402764 C117.13339,23.2794036 117.231732,21.8783855 117.33622,20.6239855 C117.441732,19.3756945 117.539049,18.3381673 117.623049,17.5002036 C117.71422,16.6714036 117.75622,16.1551855 117.75622,15.9393309 C117.75622,15.5004945 117.686561,15.1940218 117.539049,15.02704 C117.399732,14.8519127 117.111878,14.7684218 116.692902,14.7684218 C116.595585,14.7684218 116.433732,14.7887855 116.216561,14.8234036 C115.994268,14.8651491 115.769927,14.9292945 115.525098,15.02704 C115.287439,15.1237673 115.056951,15.2428945 114.83978,15.3813673 C114.615439,15.5279855 114.448463,15.7163491 114.33578,15.9393309 C114.203634,16.2315491 114.063293,16.6988945 113.930122,17.3474764 C113.796951,17.9960582 113.629976,18.7484945 113.427146,19.6129309 C113.230463,20.47024 112.971293,21.3906764 112.650659,22.37424 C112.335146,23.3557673 111.937683,24.3383127 111.461341,25.3147491 L111.139683,25.9144582 C110.244366,27.6911855 109.454561,29.1563491 108.783585,30.3119855 C108.111585,31.4696582 107.523585,32.3829673 106.999098,33.05904 C106.488951,33.74224 106.034122,34.2156945 105.649976,34.4804218 C105.264805,34.7461673 104.922659,34.8856582 104.614317,34.8856582 C104.383829,34.8856582 104.160512,34.8367855 103.943341,34.73904 C103.719,34.6412945 103.516171,34.4244218 103.334854,34.0772218 C103.152512,33.7351127 103.006024,33.2127855 102.894366,32.5153309 C102.774512,31.8188945 102.719195,30.8699491 102.719195,29.6644218 C102.719195,28.0058036 102.761195,26.39504 102.851341,24.8402764 C102.936366,23.2794036 103.033683,21.8783855 103.139195,20.6239855 C103.243683,19.3756945 103.334854,18.3381673 103.426024,17.5002036 C103.509,16.6714036 103.551,16.1551855 103.551,15.9393309 C103.551,15.5004945 103.481341,15.1940218 103.334854,15.02704 C103.194512,14.8519127 102.907683,14.7684218 102.488707,14.7684218 C102.390366,14.7684218 102.236707,14.7887855 102.012366,14.8234036 C101.79622,14.8651491 101.565732,14.9292945 101.327049,15.02704 C101.08222,15.1237673 100.851732,15.2428945 100.634561,15.3813673 C100.411244,15.5279855 100.243244,15.7163491 100.131585,15.9393309 C99.9984146,16.2315491 99.8652439,16.6988945 99.7330976,17.3474764 C99.5927561,17.9960582 99.4257805,18.7484945 99.2290976,19.6129309 C99.0262683,20.47024 98.7670976,21.3906764 98.4536341,22.37424 C98.1309512,23.3557673 97.7324634,24.3383127 97.2571463,25.3147491 L96.9703171,25.9144582 C96.1456829,27.5588218 95.4245122,28.9669673 94.8016829,30.1521309 C94.1727073,31.3372945 93.6277317,32.31984 93.158561,33.0936582 C92.6904146,33.8674764 92.2704146,34.4386764 91.9067561,34.8082764 C91.5420732,35.1850036 91.2070976,35.36624 90.9059268,35.36624 C90.3117805,35.36624 90.0106098,34.7736582 90.0106098,33.5956218 C90.0106098,32.6202036 90.0884634,31.5388945 90.242122,30.3537309 C90.3957805,29.1695855 90.5576341,27.9640582 90.7307561,26.7300218 C90.9059268,25.4959855 91.0677805,24.2833309 91.221439,23.0778036 C91.3750976,21.8712582 91.4529512,20.78384 91.4529512,19.8084218 C91.4529512,18.2597673 91.1159268,17.0338764 90.4449512,16.1276945 C89.7739756,15.2215127 88.7106585,14.7684218 87.2488537,14.7684218 C86.409878,14.7684218 85.598561,14.9496582 84.8220732,15.3121309 C84.0455854,15.6746036 83.3110976,16.16944 82.6124634,16.8037673 C81.9128049,17.4309673 81.2479756,18.1701673 80.6251463,19.0213673 C80.0033415,19.8715491 79.4225122,20.78384 78.8836829,21.7602764 C78.8273415,20.7624582 78.7156829,19.84304 78.555878,18.9928582 C78.3940244,18.1416582 78.1420244,17.4034764 77.8070488,16.7752582 C77.4710488,16.1409309 77.0244146,15.65424 76.4569024,15.2978764 C75.8904146,14.9435491 75.177439,14.7684218 74.3169512,14.7684218 C73.6039756,14.7684218 72.9186585,14.9364218 72.261,15.28464 C71.5961707,15.6267491 70.9671951,16.0930764 70.3791951,16.6714036 C69.7850488,17.2568582 69.2390488,17.9329309 68.7493902,18.7067491 C68.2607561,19.4805673 67.8335854,20.2961309 67.4699268,21.1605673 C67.5119268,20.3521309 67.533439,19.5498036 67.533439,18.7484945 L67.533439,16.05744 C67.533439,15.6196218 67.4699268,15.2907491 67.3582683,15.0820218 C67.239439,14.8722764 67.0007561,14.7684218 66.638122,14.7684218 C66.4844634,14.7684218 66.2672927,14.7755491 65.9804634,14.7959127 C65.6864634,14.8172945 65.3996341,14.8651491 65.1138293,14.9567855 C64.8259756,15.0402764 64.5534878,15.1594036 64.2953415,15.3121309 C64.0361707,15.4648582 63.861,15.6746036 63.7626585,15.9393309 C63.7073415,16.11344 63.6653415,16.4138036 63.6366585,16.8455127 C63.6028537,17.27824 63.5885122,17.9471855 63.5885122,18.8666036 C63.5885122,19.3899491 63.5956829,20.0100218 63.6028537,20.72784 C63.1336829,20.2951127 62.6020244,19.9407855 62.0150488,19.6689309 C58.3077805,17.9818036 59.3639268,15.9189673 59.3639268,13.7095127 C59.3577805,10.0491491 58.3292927,7.16362182 55.5111951,4.45933091 C51.9432439,1.02296727 47.4471951,0.0821672727 43.131439,1.99125818 C38.5780244,4.01234909 35.3122683,7.41409455 33.4304634,12.0356218 C31.059,17.8636945 30.8151951,23.9839855 31.0805122,30.1521309 C31.1081707,30.7314764 31.1296829,31.3016582 31.1153415,31.8596218 L31.1153415,31.86064 C30.8633415,32.3208582 30.6267073,32.7311855 30.4023659,33.0936582 C29.9342195,33.8674764 29.5142195,34.4386764 29.150561,34.8082764 C28.7869024,35.1850036 28.4519268,35.36624 28.1435854,35.36624 C27.549439,35.36624 27.255439,34.7736582 27.255439,33.5956218 C27.255439,32.6202036 27.3322683,31.5388945 27.4859268,30.3537309 C27.6406098,29.1695855 27.8004146,27.9640582 27.9684146,26.7300218 C28.1435854,25.4959855 28.3044146,24.2833309 28.4580732,23.0778036 C28.6117317,21.8712582 28.688561,20.78384 28.688561,19.8084218 C28.688561,18.2597673 28.3535854,17.0338764 27.6826098,16.1276945 C27.0095854,15.2215127 25.9472927,14.7684218 24.4926585,14.7684218 C23.6536829,14.7684218 22.8423659,14.9496582 22.065878,15.3121309 C21.2893902,15.6746036 20.5487561,16.16944 19.8480732,16.8037673 C19.149439,17.4309673 18.4917805,18.1701673 17.8699756,19.0213673 C17.2399756,19.8715491 16.6663171,20.78384 16.1274878,21.7602764 C16.0721707,20.7624582 15.9594878,19.84304 15.7996829,18.9928582 C15.6316829,18.1416582 15.3868537,17.4034764 15.0508537,16.7752582 C14.7148537,16.1409309 14.2600244,15.65424 13.7007073,15.2978764 C13.1342195,14.9435491 12.4212439,14.7684218 11.5535854,14.7684218 C10.8477805,14.7684218 10.1624634,14.9364218 9.49763415,15.28464 C8.83997561,15.6267491 8.211,16.0930764 7.61685366,16.6714036 C7.02270732,17.2568582 6.48285366,17.9329309 5.99421951,18.7067491 C5.50353659,19.4805673 5.07739024,20.2961309 4.71373171,21.1605673 C4.74856098,20.3521309 4.76904878,19.5498036 4.76904878,18.7484945 L4.76904878,16.05744 C4.76904878,15.6196218 4.71373171,15.2907491 4.60207317,15.0820218 C4.4832439,14.8722764 4.24558537,14.7684218 3.88192683,14.7684218 C3.72826829,14.7684218 3.50392683,14.7755491 3.21709756,14.7959127 C2.93026829,14.8172945 2.64343902,14.8651491 2.35660976,14.9567855 C2.07080488,15.0402764 1.79729268,15.1594036 1.53812195,15.3121309 C1.27997561,15.4648582 1.09763415,15.6746036 1.0074878,15.9393309 C0.94397561,16.11344 0.90197561,16.4138036 0.874317073,16.8455127 C0.845634146,17.27824 0.832317073,17.9471855 0.832317073,18.8666036 C0.832317073,19.41744 0.839487805,20.0802764 0.845634146,20.83984 C0.852804878,21.6065309 0.85997561,22.4923491 0.85997561,23.5095127 C0.85997561,24.5205673 0.867146341,25.6772218 0.874317073,26.9733673 C0.887634146,28.2705309 0.887634146,29.7336582 0.887634146,31.3586764 C0.796463415,31.8188945 0.69197561,32.3055855 0.587487805,32.8360582 C0.483,33.3594036 0.384658537,33.8674764 0.300658537,34.3623127 C0.216658537,34.8642764 0.139829268,35.3244945 0.0834878049,35.7562036 C0.0281707317,36.1889309 -0.000512195122,36.5442764 -0.000512195122,36.8303855 C-0.000512195122,37.4229673 0.125487805,37.8058036 0.370317073,37.9738036 C0.623341463,38.1479127 0.887634146,38.2314036 1.1754878,38.2314036 C1.40597561,38.2314036 1.70612195,38.1967855 2.07080488,38.1194036 C2.43343902,38.04304 2.79095122,37.9249309 3.13309756,37.7640582 C3.47626829,37.5970764 3.77743902,37.3883491 4.03558537,37.1297309 C4.2947561,36.8721309 4.42690244,36.5503855 4.42690244,36.1675491 C4.42690244,33.9377309 4.44841463,31.8748945 4.49758537,29.9851491 C4.5467561,28.0892945 4.60207317,26.3044218 4.65841463,24.6244218 L4.65841463,24.2833309 C5.07739024,23.2519127 5.50353659,22.2826036 5.93787805,21.3692945 C6.36402439,20.4641309 6.81270732,19.6689309 7.27368293,18.9928582 C7.73568293,18.3167855 8.21817073,17.7802036 8.72114634,17.3892218 C9.23231707,16.9992582 9.76295122,16.8037673 10.3222683,16.8037673 C10.778122,16.8037673 11.1550976,16.9575127 11.4419268,17.27824 C11.7287561,17.5908218 11.9520732,18.0306764 12.1129024,18.6090036 C12.2809024,19.1812218 12.3864146,19.8715491 12.4489024,20.6728582 C12.5052439,21.4741673 12.5339268,22.3599855 12.5339268,23.3354036 C12.5339268,23.7956218 12.5267561,24.34544 12.5195854,24.9797673 C12.5124146,25.6212218 12.4980732,26.2901673 12.4775854,26.9876218 C12.4560732,27.6840582 12.4355854,28.38864 12.4212439,29.0922036 C12.4007561,29.8039127 12.3792439,30.4372218 12.3587561,31.0165673 C12.2675854,31.6223855 12.1692439,32.2292218 12.0709024,32.8218036 C11.9797317,33.4143855 11.8895854,33.9652218 11.8127561,34.4804218 C11.7359268,34.99664 11.673439,35.4639855 11.631439,35.88144 C11.5822683,36.30704 11.5535854,36.6420218 11.5535854,36.8853673 C11.5535854,37.4229673 11.6662683,37.7772945 11.8895854,37.9595491 C12.1067561,38.1407855 12.3720732,38.2314036 12.6793902,38.2314036 C12.812561,38.2314036 13.0082195,38.2171491 13.2673902,38.1754036 C13.5255366,38.1407855 13.791878,38.0847855 14.0715366,38.0084218 C14.3511951,37.9320582 14.6031951,37.8332945 14.8347073,37.7223127 C15.0641707,37.6042036 15.225,37.4779491 15.3233415,37.3466036 C15.4565122,37.1378764 15.5825122,36.73264 15.6941707,36.1258036 C15.8140244,35.5260945 15.9041707,34.7115491 15.9666585,33.6791127 C16.0363171,32.6476945 16.0854878,31.37904 16.1274878,29.8812945 C16.1623171,28.3825309 16.1838293,26.6322764 16.1838293,24.6244218 L16.1838293,24.6234036 C16.5894878,23.7039855 17.0648049,22.77744 17.6108049,21.8437673 C18.1568049,20.9090764 18.7366098,20.0660218 19.359439,19.3064582 C19.9812439,18.5540218 20.624561,17.9400582 21.2893902,17.4584582 C21.9470488,16.9860218 22.5831951,16.74064 23.1988537,16.74064 C23.8134878,16.74064 24.2754878,16.9575127 24.5766585,17.3892218 C24.8839756,17.8219491 25.0386585,18.3860218 25.0386585,19.0906036 C25.0386585,19.89904 24.9608049,20.9304582 24.8071463,22.2052218 C24.6534878,23.4748945 24.4854878,24.82704 24.2898293,26.2555491 C24.1013415,27.6911855 23.9261707,29.1196945 23.7725122,30.5573673 C23.6188537,31.9858764 23.5420244,33.2759127 23.5420244,34.4244218 C23.5420244,35.1850036 23.6321707,35.8122036 23.8001707,36.2999127 C23.9743171,36.78864 24.2058293,37.1714764 24.4926585,37.4575855 C24.7794878,37.7498036 25.1154878,37.9452945 25.4996341,38.0644218 C25.8848049,38.1754036 26.276122,38.2314036 26.6817805,38.2314036 C27.3670976,38.2314036 27.9960732,38.0644218 28.562561,37.7223127 C29.0173902,37.4433309 29.4927073,36.99024 29.9956829,36.3711855 C29.9967073,36.3701673 29.9967073,36.3701673 29.9977317,36.3701673 C31.1307073,35.9791855 31.7873415,35.3316218 32.6334878,34.73904 C37.1377317,43.1940218 45.6002195,45.5154764 48.7819756,44.7762764 C51.9575854,44.0452218 54.3915366,42.5668218 57.6716341,40.1343855 C59.7910976,38.5724945 61.6657317,36.4322764 63.0291951,34.5079127 C62.9585122,34.9538764 62.8970488,35.3652218 62.8468537,35.7562036 C62.7833415,36.1889309 62.7567073,36.5442764 62.7567073,36.8303855 C62.7567073,37.4229673 62.8816829,37.8058036 63.1336829,37.9738036 C63.3785122,38.1479127 63.651,38.2314036 63.9378293,38.2314036 C64.1693415,38.2314036 64.4623171,38.1967855 64.8259756,38.1194036 C65.1896341,38.04304 65.546122,37.9249309 65.8892927,37.7640582 C66.2386098,37.5970764 66.5397805,37.3883491 66.7979268,37.1297309 C67.0570976,36.8721309 67.1830976,36.5503855 67.1830976,36.1675491 C67.1830976,33.9377309 67.2107561,31.8748945 67.2599268,29.9851491 C67.3019268,28.0892945 67.3582683,26.3044218 67.4146098,24.6244218 L67.4146098,24.2833309 C67.8335854,23.2519127 68.2607561,22.2826036 68.6940732,21.3692945 C69.1284146,20.4641309 69.567878,19.6689309 70.0288537,18.9928582 C70.491878,18.3167855 70.9733415,17.7802036 71.4845122,17.3892218 C71.9885122,16.9992582 72.5191463,16.8037673 73.0794878,16.8037673 C73.5404634,16.8037673 73.9123171,16.9575127 74.198122,17.27824 C74.4849512,17.5908218 74.7092927,18.0306764 74.8762683,18.6090036 C75.0370976,19.1812218 75.1497805,19.8715491 75.2050976,20.6728582 C75.261439,21.4741673 75.2890976,22.3599855 75.2890976,23.3354036 C75.2890976,23.7956218 75.2890976,24.34544 75.2757805,24.9797673 C75.2686098,25.6212218 75.2542683,26.2901673 75.2337805,26.9876218 C75.2122683,27.6840582 75.1979268,28.38864 75.177439,29.0922036 C75.1559268,29.8039127 75.135439,30.4372218 75.1210976,31.0165673 C75.0227561,31.6223855 74.925439,32.2292218 74.8342683,32.8218036 C74.7369512,33.4143855 74.6529512,33.9652218 74.576122,34.4804218 C74.4992927,34.99664 74.4357805,35.4639855 74.3866098,35.88144 C74.3384634,36.30704 74.3169512,36.6420218 74.3169512,36.8853673 C74.3169512,37.4229673 74.4224634,37.7772945 74.6457805,37.9595491 C74.8619268,38.1407855 75.1282683,38.2314036 75.4366098,38.2314036 C75.5687561,38.2314036 75.7644146,38.2171491 76.0235854,38.1754036 C76.2827561,38.1407855 76.5552439,38.0847855 76.8277317,38.0084218 C77.1084146,37.9320582 77.3593902,37.8332945 77.589878,37.7223127 C77.8213902,37.6042036 77.9811951,37.4779491 78.0795366,37.3466036 C78.2127073,37.1368582 78.3387073,36.73264 78.4575366,36.1258036 C78.5691951,35.5260945 78.6603659,34.7115491 78.7300244,33.6791127 C78.7925122,32.6476945 78.8488537,31.37904 78.8836829,29.8812945 C78.9256829,28.3825309 78.9471951,26.6322764 78.9471951,24.6244218 C79.3456829,23.7039855 79.821,22.77744 80.3659756,21.8437673 C80.9119756,20.9090764 81.4999756,20.0660218 82.1217805,19.3064582 C82.7446098,18.5540218 83.3879268,17.9400582 84.0455854,17.4584582 C84.7104146,16.9860218 85.346561,16.74064 85.9540244,16.74064 C86.5707073,16.74064 87.0316829,16.9575127 87.3400244,17.3892218 C87.6473415,17.8219491 87.801,18.3860218 87.801,19.0906036 C87.801,19.89904 87.7241707,20.9304582 87.5705122,22.2052218 C87.4168537,23.4748945 87.2416829,24.82704 87.0531951,26.2555491 C86.8565122,27.6911855 86.6895366,29.1196945 86.535878,30.5573673 C86.3811951,31.9858764 86.3043659,33.2759127 86.3043659,34.4244218 C86.3043659,35.1850036 86.3883659,35.8122036 86.5635366,36.2999127 C86.7376829,36.78864 86.9620244,37.1714764 87.2488537,37.4575855 C87.5418293,37.7498036 87.8778293,37.9452945 88.2558293,38.0644218 C88.6399756,38.1754036 89.0323171,38.2314036 89.4379756,38.2314036 C90.1304634,38.2314036 90.7522683,38.0644218 91.3197805,37.7223127 C91.8852439,37.3740945 92.486561,36.7672582 93.116561,35.8967127 C93.7537317,35.0312582 94.4667073,33.8613673 95.2565122,32.3890764 C96.0545122,30.9188218 97.0194878,29.0575855 98.1452927,26.7992582 L98.4392927,26.1995491 L98.7250976,25.6283491 L99.0119268,25.6283491 C98.9699268,26.2209309 98.949439,26.7860218 98.949439,27.3297309 L98.949439,28.8906036 C98.949439,30.6469673 99.0477805,32.1253673 99.2290976,33.3176582 C99.411439,34.5160582 99.6839268,35.4711127 100.061927,36.2031855 C100.431732,36.9271127 100.900902,37.4433309 101.46739,37.7640582 C102.033878,38.0776582 102.712024,38.2314036 103.494659,38.2314036 C104.243488,38.2314036 104.992317,37.9025309 105.741146,37.2488582 C106.488951,36.5860218 107.23061,35.7215855 107.965098,34.6555491 C108.705732,33.5813673 109.433049,32.3615855 110.153195,30.9880582 C110.867195,29.6084218 111.594512,28.2145309 112.321829,26.7992582 L112.327976,26.7860218 L112.636317,26.1995491 L112.924171,25.6283491 L113.209976,25.6283491 C113.175146,26.2209309 113.153634,26.7860218 113.153634,27.3297309 L113.153634,28.8906036 C113.153634,30.6469673 113.244805,32.1253673 113.427146,33.3176582 C113.608463,34.5160582 113.888122,35.4711127 114.258951,36.2031855 C114.635927,36.9271127 115.105098,37.4433309 115.671585,37.7640582 C116.238073,38.0776582 116.910073,38.2314036 117.700902,38.2314036 C118.448707,38.2314036 119.190366,37.9025309 119.938171,37.2488582 C120.687,36.5860218 122.360854,33.8063855 122.943732,32.6456582 C124.455732,29.6308218 125.342854,25.9205673 125.344902,25.9144582 C124.442415,27.6911855 123.658756,29.1563491 122.98778,30.3119855" id="Fill-29" fill="#7CC0FF" mask="url(#mask-2)"></path>
            </g>
        </g>
    </g>
</svg>