<?xml version="1.0" encoding="iso-8859-1"?>
<!-- Generator: Adobe Illustrator 19.0.0, SVG Export Plug-In . SVG Version: 6.00 Build 0)  -->
<svg version="1.1" id="Layer_1" xmlns="http://www.w3.org/2000/svg" xmlns:xlink="http://www.w3.org/1999/xlink" x="0px" y="0px"
	 viewBox="0 0 512 512" style="enable-background:new 0 0 512 512;" xml:space="preserve">
<g>
	<g>
		<path d="M409.651,321.086c21.336-45.781,32.133-91.156,32.133-135.303C441.784,83.341,358.441,0,256,0
			S70.216,83.341,70.216,185.783c0,44.146,10.797,89.522,32.133,135.304v-90.858v-30.434h30.434h37.458
			c-0.745-4.593-1.126-9.269-1.126-14.014c0-47.91,38.976-86.885,86.885-86.885c47.909,0,86.886,38.976,86.886,86.886
			c0,4.745-0.38,9.42-1.126,14.014h37.458h30.434v30.434V321.086z"/>
	</g>
</g>
<g>
	<g>
		<path d="M191.933,451.951c29.761,32.529,53.394,51.526,54.573,52.467L256,512l9.494-7.582c1.179-0.94,24.812-19.938,54.573-52.467
			H191.933z"/>
	</g>
</g>
<g>
	<g>
		<rect x="239.431" y="230.23" width="33.138" height="34.227"/>
	</g>
</g>
<g>
	<g>
		<path d="M303.002,230.229v64.66h-94.004v-64.66h-76.215v116.412v74.877h52.721h140.992h52.721V230.229H303.002z M303.015,345.654
			h-94.031V315.22h94.031V345.654z"/>
	</g>
</g>
<g>
</g>
<g>
</g>
<g>
</g>
<g>
</g>
<g>
</g>
<g>
</g>
<g>
</g>
<g>
</g>
<g>
</g>
<g>
</g>
<g>
</g>
<g>
</g>
<g>
</g>
<g>
</g>
<g>
</g>
</svg>
