<?xml version="1.0" encoding="iso-8859-1"?>
<!-- Generator: Adobe Illustrator 18.0.0, SVG Export Plug-In . SVG Version: 6.00 Build 0)  -->
<!DOCTYPE svg PUBLIC "-//W3C//DTD SVG 1.1//EN" "http://www.w3.org/Graphics/SVG/1.1/DTD/svg11.dtd">
<svg version="1.1" id="Capa_1" xmlns="http://www.w3.org/2000/svg" xmlns:xlink="http://www.w3.org/1999/xlink" x="0px" y="0px"
	 viewBox="0 0 430.545 430.545" style="enable-background:new 0 0 430.545 430.545;" xml:space="preserve">
<g>
	<path d="M69.025,194.712c-0.113-0.158-0.221-0.318-0.326-0.481C68.804,194.394,68.913,194.554,69.025,194.712z"/>
	<path d="M69.694,195.564c-0.136-0.156-0.266-0.318-0.393-0.482C69.429,195.246,69.559,195.407,69.694,195.564z"/>
	<path d="M68.436,193.796c-0.092-0.158-0.181-0.316-0.265-0.479C68.254,193.48,68.344,193.638,68.436,193.796z"/>
	<path d="M76.974,199.475c-2.079-0.262-3.984-1.082-5.569-2.299C72.99,198.395,74.895,199.212,76.974,199.475z"/>
	<path d="M70.437,196.348c-0.163-0.156-0.318-0.32-0.471-0.485C70.119,196.029,70.274,196.191,70.437,196.348z"/>
	<path d="M67.931,192.821c-0.072-0.157-0.144-0.314-0.209-0.474C67.787,192.508,67.859,192.664,67.931,192.821z"/>
	<path d="M71.248,197.058c-0.197-0.156-0.385-0.323-0.571-0.492C70.863,196.735,71.051,196.902,71.248,197.058z"/>
	<path d="M282.663,178.539c0.117,0.081,0.228,0.169,0.342,0.254C282.891,178.708,282.779,178.62,282.663,178.539z"/>
	<path d="M283.864,179.498c0.146,0.134,0.286,0.273,0.425,0.414C284.15,179.771,284.01,179.631,283.864,179.498z"/>
	<path d="M285.395,181.199c0.148,0.202,0.291,0.409,0.426,0.621C285.685,181.608,285.543,181.401,285.395,181.199z"/>
	<path d="M284.411,180.031c0.15,0.156,0.294,0.318,0.435,0.482C284.704,180.349,284.561,180.187,284.411,180.031z"/>
	<path d="M284.922,180.599c0.15,0.179,0.295,0.364,0.435,0.552C285.217,180.963,285.073,180.778,284.922,180.599z"/>
	<path d="M285.827,181.829c1.101,1.724,1.756,3.758,1.804,5.941C287.583,185.586,286.929,183.552,285.827,181.829z"/>
	<path d="M67.2,190.701c-0.035-0.147-0.075-0.292-0.104-0.441C67.125,190.409,67.165,190.554,67.2,190.701z"/>
	<path d="M283.28,178.999c0.132,0.105,0.259,0.218,0.387,0.33C283.54,179.218,283.413,179.105,283.28,178.999z"/>
	<path d="M67.517,191.789c-0.053-0.154-0.109-0.306-0.156-0.462C67.408,191.483,67.464,191.635,67.517,191.789z"/>
	<path d="M66.984,189.532c-0.016-0.125-0.04-0.249-0.053-0.376C66.943,189.283,66.968,189.406,66.984,189.532z"/>
	<path d="M282.012,178.118c0.095,0.057,0.186,0.12,0.278,0.18C282.198,178.238,282.107,178.175,282.012,178.118z"/>
	<path d="M198.779,66.877c0.52,0.119,1.037,0.245,1.554,0.372C199.816,67.123,199.299,66.996,198.779,66.877z"/>
	<path d="M209.271,69.913c0.501,0.176,1.001,0.353,1.498,0.536C210.272,70.265,209.771,70.088,209.271,69.913z"/>
	<path d="M196.307,66.349c0.492,0.099,0.981,0.204,1.471,0.31C197.289,66.553,196.799,66.448,196.307,66.349z"/>
	<path d="M206.595,69.014c0.611,0.195,1.22,0.392,1.826,0.599C207.815,69.406,207.206,69.209,206.595,69.014z"/>
	<path d="M203.65,68.121c0.805,0.229,1.605,0.467,2.402,0.716C205.256,68.588,204.456,68.35,203.65,68.121z"/>
	<path d="M193.81,65.883c0.481,0.083,0.96,0.172,1.439,0.263C194.77,66.055,194.29,65.967,193.81,65.883z"/>
	<path d="M201.228,67.469c0.616,0.157,1.227,0.325,1.838,0.494C202.455,67.794,201.844,67.626,201.228,67.469z"/>
	<path d="M183.489,64.668c0.525,0.033,1.05,0.067,1.573,0.109C184.54,64.735,184.014,64.701,183.489,64.668z"/>
	<path d="M191.285,65.482c0.479,0.069,0.958,0.144,1.435,0.22C192.242,65.626,191.764,65.551,191.285,65.482z"/>
	<path d="M177.256,64.461c0.875,0,1.747,0.013,2.617,0.037C179.003,64.474,178.131,64.461,177.256,64.461z"/>
	<path d="M180.734,64.53c0.582,0.021,1.164,0.042,1.743,0.073C181.897,64.572,181.316,64.551,180.734,64.53z"/>
	<path d="M188.728,65.144c0.485,0.058,0.97,0.118,1.454,0.183C189.698,65.262,189.213,65.202,188.728,65.144z"/>
	<path d="M186.134,64.873c0.5,0.045,1,0.093,1.498,0.146C187.133,64.965,186.634,64.918,186.134,64.873z"/>
	<path d="M151.067,79.727c0.121,0.018,0.241,0.038,0.36,0.063C151.308,79.765,151.188,79.745,151.067,79.727z"/>
	<path d="M92.684,138.877c-0.008-0.046-0.019-0.092-0.026-0.139C92.665,138.785,92.676,138.83,92.684,138.877z"/>
	<path d="M92.897,139.785c-0.021-0.07-0.042-0.14-0.061-0.21C92.855,139.645,92.875,139.714,92.897,139.785z"/>
	<path d="M92.59,137.896c-0.002-0.07,0.002-0.141,0.003-0.211C92.592,137.755,92.588,137.826,92.59,137.896z"/>
	<path d="M92.63,137.02c0.009-0.083,0.017-0.167,0.029-0.25C92.647,136.854,92.639,136.936,92.63,137.02z"/>
	<path d="M243.61,90.872c0.414,0.391,0.823,0.787,1.23,1.185C244.433,91.659,244.024,91.263,243.61,90.872z"/>
	<path d="M245.37,92.574c0.45,0.447,0.894,0.9,1.335,1.355C246.264,93.474,245.82,93.021,245.37,92.574z"/>
	<path d="M93.668,141.466c-0.029-0.046-0.06-0.091-0.088-0.138C93.608,141.375,93.639,141.42,93.668,141.466z"/>
	<path d="M94.187,142.188c-0.039-0.047-0.076-0.097-0.114-0.145C94.111,142.091,94.148,142.141,94.187,142.188z"/>
	<path d="M93.186,140.571c-0.011-0.025-0.019-0.05-0.03-0.075C93.166,140.521,93.175,140.546,93.186,140.571z"/>
	<path d="M148.803,79.762c0.224-0.041,0.447-0.068,0.67-0.087C149.25,79.693,149.027,79.721,148.803,79.762z"/>
	<path d="M152.319,80.029c0.124,0.043,0.247,0.092,0.368,0.142C152.566,80.121,152.444,80.072,152.319,80.029z"/>
	<path d="M152.91,80.261c0.167,0.074,0.329,0.156,0.489,0.244C153.239,80.418,153.077,80.335,152.91,80.261z"/>
	<path d="M151.705,79.85c0.119,0.029,0.236,0.063,0.353,0.098C151.941,79.913,151.824,79.879,151.705,79.85z"/>
	<path d="M149.7,79.664c0.146-0.007,0.291-0.014,0.435-0.012C149.991,79.65,149.845,79.656,149.7,79.664z"/>
	<path d="M150.404,79.663c0.128,0.007,0.256,0.015,0.382,0.028C150.66,79.677,150.532,79.669,150.404,79.663z"/>
	<path d="M238.059,86.017c0.406,0.329,0.81,0.66,1.21,0.996C238.868,86.677,238.464,86.346,238.059,86.017z"/>
	<path d="M239.96,87.598c0.397,0.339,0.792,0.681,1.184,1.026C240.752,88.279,240.358,87.937,239.96,87.598z"/>
	<path d="M211.691,70.8c0.468,0.179,0.936,0.358,1.4,0.545C212.626,71.159,212.159,70.979,211.691,70.8z"/>
	<path d="M241.809,89.215c0.401,0.359,0.798,0.724,1.192,1.09C242.606,89.939,242.21,89.575,241.809,89.215z"/>
	<path d="M220.811,74.836c0.449,0.228,0.894,0.46,1.339,0.694C221.705,75.296,221.259,75.064,220.811,74.836z"/>
	<path d="M216.333,72.714c0.444,0.196,0.886,0.396,1.326,0.6C217.219,73.111,216.777,72.911,216.333,72.714z"/>
	<path d="M218.59,73.748c0.442,0.21,0.882,0.424,1.321,0.641C219.473,74.173,219.033,73.959,218.59,73.748z"/>
	<path d="M236.107,84.478c0.42,0.323,0.838,0.647,1.252,0.976C236.945,85.124,236.527,84.8,236.107,84.478z"/>
	<path d="M227.26,78.414c1.412,0.857,2.801,1.748,4.165,2.673C230.061,80.162,228.672,79.271,227.26,78.414z"/>
	<path d="M225.146,77.17c0.524,0.3,1.043,0.607,1.561,0.917C226.189,77.778,225.67,77.47,225.146,77.17z"/>
	<path d="M234.081,82.96c0.447,0.326,0.893,0.652,1.333,0.985C234.973,83.613,234.527,83.286,234.081,82.96z"/>
	<path d="M222.994,75.977c0.468,0.252,0.931,0.51,1.394,0.77C223.925,76.487,223.462,76.229,222.994,75.977z"/>
	<path d="M231.899,81.416c0.516,0.354,1.029,0.711,1.537,1.074C232.928,82.127,232.415,81.77,231.899,81.416z"/>
	<path d="M214.036,71.731c0.452,0.187,0.904,0.375,1.353,0.568C214.939,72.106,214.488,71.918,214.036,71.731z"/>
	<path d="M374.518,41.415L323.204,7.666c-3.232-2.126-7.572-1.227-9.695,2.002c-2.125,3.23-1.228,7.57,2.002,9.694l51.314,33.75
		c1.186,0.779,2.52,1.152,3.84,1.152c2.277,0,4.51-1.11,5.855-3.154C378.643,47.88,377.747,43.539,374.518,41.415z"/>
	<path d="M302.907,0c-3.867,0-7,3.134-7,7v8.556c0,3.866,3.133,7,7,7c3.865,0,7-3.134,7-7V7C309.907,3.134,306.772,0,302.907,0z"/>
	<path d="M287.903,165.375c0.057-1.412,0.092-2.81,0.092-4.176c0-33.771-15.201-64.054-39.113-84.382l42.59-59.215
		c2.258-3.139,1.543-7.513-1.596-9.77c-3.137-2.257-7.514-1.544-9.77,1.595l-42.441,59.008
		c-17.385-11.359-38.137-17.974-60.408-17.974c-61.063,0-110.74,49.677-110.74,110.738c0,1.383,0.035,2.774,0.092,4.177
		c-8.154,4.273-13.734,12.816-13.734,22.643c0,14.09,11.459,25.553,25.545,25.557l32.471,211.033
		c0.525,3.415,3.463,5.935,6.918,5.935h118.898c3.455,0,6.395-2.52,6.92-5.935l32.469-211.033
		c14.086-0.005,25.545-11.468,25.545-25.557C301.639,178.192,296.059,169.648,287.903,165.375z M177.256,64.461
		c0.875,0,1.747,0.013,2.617,0.037c0.288,0.007,0.574,0.022,0.861,0.033c0.582,0.021,1.164,0.042,1.743,0.073
		c0.338,0.018,0.675,0.043,1.012,0.065c0.525,0.033,1.05,0.067,1.573,0.109c0.358,0.029,0.714,0.063,1.071,0.096
		c0.5,0.045,1,0.093,1.498,0.146c0.366,0.039,0.731,0.083,1.096,0.125c0.485,0.058,0.97,0.118,1.454,0.183
		c0.369,0.05,0.736,0.102,1.104,0.155c0.479,0.069,0.958,0.144,1.435,0.22c0.364,0.059,0.727,0.119,1.09,0.181
		c0.481,0.083,0.96,0.172,1.439,0.263c0.353,0.066,0.707,0.132,1.058,0.203c0.492,0.099,0.981,0.204,1.471,0.31
		c0.334,0.073,0.669,0.143,1.001,0.219c0.52,0.119,1.037,0.245,1.554,0.372c0.298,0.073,0.598,0.143,0.895,0.219
		c0.616,0.157,1.227,0.325,1.838,0.494c0.194,0.054,0.391,0.104,0.584,0.159c0.805,0.229,1.605,0.467,2.402,0.716
		c0.182,0.057,0.361,0.119,0.543,0.177c0.611,0.195,1.22,0.392,1.826,0.599c0.285,0.097,0.566,0.2,0.85,0.3
		c0.501,0.176,1.001,0.353,1.498,0.536c0.309,0.115,0.615,0.234,0.922,0.352c0.468,0.179,0.936,0.358,1.4,0.545
		c0.316,0.126,0.63,0.257,0.944,0.386c0.452,0.187,0.904,0.375,1.353,0.568c0.316,0.136,0.631,0.275,0.945,0.415
		c0.444,0.196,0.886,0.396,1.326,0.6c0.311,0.143,0.622,0.288,0.931,0.434c0.442,0.21,0.882,0.424,1.321,0.641
		c0.3,0.148,0.6,0.296,0.899,0.447c0.449,0.228,0.894,0.46,1.339,0.694c0.282,0.148,0.564,0.295,0.845,0.446
		c0.468,0.252,0.931,0.51,1.394,0.77c0.253,0.142,0.507,0.28,0.758,0.424c0.524,0.3,1.043,0.607,1.561,0.917
		c0.184,0.109,0.37,0.216,0.553,0.327c1.412,0.857,2.801,1.748,4.165,2.673c0.159,0.108,0.315,0.22,0.474,0.329
		c0.516,0.354,1.029,0.711,1.537,1.074c0.216,0.155,0.43,0.314,0.645,0.47c0.447,0.326,0.893,0.652,1.333,0.985
		c0.233,0.175,0.462,0.354,0.693,0.532c0.42,0.323,0.838,0.647,1.252,0.976c0.234,0.187,0.467,0.375,0.699,0.563
		c0.406,0.329,0.81,0.66,1.21,0.996c0.231,0.194,0.462,0.389,0.692,0.585c0.397,0.339,0.792,0.681,1.184,1.026
		c0.222,0.196,0.445,0.393,0.665,0.591c0.401,0.359,0.797,0.724,1.192,1.09c0.203,0.188,0.407,0.376,0.609,0.567
		c0.414,0.391,0.823,0.787,1.23,1.185c0.176,0.172,0.354,0.343,0.529,0.517c0.45,0.447,0.894,0.9,1.335,1.355
		c0.126,0.13,0.253,0.257,0.378,0.388c16.66,17.386,26.911,40.959,26.911,66.882c0,0.421-0.012,0.846-0.02,1.269H90.915H80.536
		c-0.006-0.423-0.02-0.848-0.02-1.269C80.516,107.857,123.915,64.461,177.256,64.461z M230.7,416.545H123.813l-1.025-6.657h108.938
		L230.7,416.545z M254.415,262.414l-1.297,8.426l-11.729,69.846H210.02h-10v-88.272h55.934L254.415,262.414z M260.332,223.959
		l-2.224,14.455H193.02c-3.867,0-7,3.134-7,7v102.272c0,3.866,3.133,7,7,7h47.197l-6.338,41.202H129.096h-8.463l-27.99-181.929
		H261.87L260.332,223.959z M78.424,199.576c-0.492,0-0.974-0.041-1.449-0.101h-0.001c-2.08-0.263-3.984-1.08-5.57-2.299
		c-0.052-0.04-0.106-0.077-0.157-0.118c-0.197-0.156-0.385-0.323-0.571-0.492c-0.08-0.072-0.162-0.144-0.24-0.218
		c-0.163-0.156-0.318-0.319-0.471-0.485c-0.091-0.099-0.184-0.197-0.271-0.299c-0.136-0.157-0.266-0.318-0.393-0.482
		c-0.094-0.121-0.187-0.244-0.276-0.369c-0.113-0.158-0.221-0.318-0.326-0.481c-0.091-0.143-0.179-0.288-0.264-0.435
		c-0.092-0.158-0.181-0.316-0.265-0.479c-0.084-0.163-0.163-0.33-0.24-0.497c-0.072-0.157-0.144-0.313-0.209-0.474
		c-0.074-0.183-0.14-0.371-0.205-0.558c-0.053-0.154-0.109-0.306-0.156-0.462c-0.062-0.206-0.111-0.416-0.161-0.626
		c-0.035-0.147-0.075-0.292-0.104-0.441c-0.047-0.24-0.08-0.484-0.112-0.729c-0.016-0.126-0.04-0.249-0.053-0.376
		c-0.037-0.374-0.058-0.753-0.058-1.136c0-4.48,2.568-8.364,6.307-10.28c0.262,0.03,0.525,0.05,0.795,0.05h206.561
		c0.27,0,0.535-0.02,0.797-0.05c0.231,0.119,0.458,0.245,0.68,0.378c0.095,0.057,0.186,0.12,0.278,0.18
		c0.125,0.08,0.25,0.157,0.372,0.241c0.117,0.081,0.228,0.169,0.342,0.254c0.092,0.069,0.186,0.135,0.276,0.206
		c0.132,0.105,0.259,0.218,0.387,0.33c0.065,0.057,0.133,0.11,0.197,0.169c0.146,0.133,0.286,0.273,0.425,0.414
		c0.04,0.04,0.083,0.078,0.122,0.119c0.15,0.156,0.293,0.318,0.435,0.482c0.025,0.029,0.052,0.057,0.077,0.086
		c0.151,0.179,0.295,0.364,0.435,0.552c0.012,0.017,0.025,0.032,0.037,0.048c0.149,0.202,0.291,0.409,0.426,0.621
		c0.002,0.003,0.004,0.006,0.006,0.009c1.103,1.724,1.756,3.757,1.804,5.941c0,0.007,0,0.014,0,0.02
		c0.001,0.077,0.008,0.152,0.008,0.23c0,6.372-5.184,11.557-11.553,11.557"/>
	<path d="M99.59,144.742c3.082,0,5.904-2.05,6.752-5.167c10.604-39.055,43.551-45.769,44.984-46.043
		c3.789-0.701,6.299-4.336,5.611-8.131c-0.387-2.137-1.708-3.872-3.465-4.858c-0.024-0.014-0.05-0.025-0.074-0.038
		c-0.16-0.088-0.323-0.17-0.489-0.244c-0.073-0.033-0.148-0.061-0.223-0.091c-0.121-0.05-0.243-0.099-0.368-0.142
		c-0.087-0.029-0.174-0.055-0.261-0.081c-0.117-0.035-0.234-0.068-0.353-0.098c-0.092-0.022-0.185-0.042-0.277-0.061
		c-0.12-0.024-0.24-0.045-0.36-0.063c-0.093-0.014-0.187-0.026-0.281-0.037c-0.126-0.013-0.254-0.021-0.382-0.028
		c-0.09-0.004-0.179-0.01-0.269-0.011c-0.144-0.002-0.29,0.004-0.435,0.012c-0.076,0.004-0.151,0.004-0.227,0.011
		c-0.222,0.019-0.445,0.047-0.67,0.087c-1.75,0.317-42.986,8.314-55.973,56.145c-0.078,0.288-0.131,0.576-0.171,0.863
		c-0.012,0.083-0.02,0.167-0.029,0.25c-0.023,0.223-0.036,0.444-0.038,0.665c-0.001,0.07-0.004,0.141-0.003,0.211
		c0.006,0.283,0.028,0.564,0.068,0.841c0.007,0.047,0.018,0.093,0.026,0.139c0.039,0.236,0.09,0.468,0.153,0.697
		c0.019,0.07,0.039,0.141,0.061,0.21c0.074,0.242,0.159,0.48,0.259,0.711c0.011,0.025,0.019,0.05,0.03,0.075
		c0.116,0.26,0.249,0.512,0.395,0.757c0.028,0.047,0.059,0.092,0.088,0.138c0.125,0.199,0.26,0.391,0.405,0.577
		c0.038,0.048,0.075,0.098,0.114,0.145c0.182,0.221,0.373,0.434,0.581,0.632c0.813,0.773,1.825,1.362,2.984,1.676
		C98.366,144.663,98.983,144.742,99.59,144.742z"/>
</g>
<g>
</g>
<g>
</g>
<g>
</g>
<g>
</g>
<g>
</g>
<g>
</g>
<g>
</g>
<g>
</g>
<g>
</g>
<g>
</g>
<g>
</g>
<g>
</g>
<g>
</g>
<g>
</g>
<g>
</g>
</svg>
