<?xml version="1.0" encoding="iso-8859-1"?>
<!-- Generator: Adobe Illustrator 19.0.0, SVG Export Plug-In . SVG Version: 6.00 Build 0)  -->
<svg xmlns="http://www.w3.org/2000/svg" xmlns:xlink="http://www.w3.org/1999/xlink" version="1.1" id="Capa_1" x="0px" y="0px" viewBox="0 0 512.001 512.001" style="enable-background:new 0 0 512.001 512.001;" xml:space="preserve" width="512px" height="512px">
<g>
	<g>
		<path d="M482.001,46H29.999C13.457,46,0,59.458,0,76v260.001c0,16.542,13.457,30,29.999,30h206.595    c5.07,55.984,52.258,99.999,109.54,99.999c57.283,0,104.471-44.015,109.541-99.999h26.326c16.542,0,30-13.458,30-30V76    C512.001,59.458,498.543,46,482.001,46z M346.134,446c-49.626,0-89.999-40.373-89.999-89.999c0-49.626,40.373-90,89.999-90    c49.626,0,90,40.374,90,90C436.134,405.628,395.76,446,346.134,446z M492.001,336.001c0,5.514-4.486,10-10,10h-26.326    c-5.07-55.985-52.258-100-109.541-100c-57.282,0-104.471,44.015-109.54,100H29.999c-5.514,0-9.999-4.486-9.999-10V185.4h472.001    V336.001z M492.001,165.4H20v-29.2h472.001V165.4z M492.001,116.201H20V76c0-5.514,4.485-9.999,9.999-9.999h452.002    c5.514,0,10,4.486,10,9.999V116.201z" fill="#D80027"/>
	</g>
</g>
<g>
	<g>
		<path d="M142.841,214.003H59.112c-5.522,0-10,4.477-10,10c0,5.522,4.478,10,10,10h83.729c5.522,0,10-4.477,10-10    S148.363,214.003,142.841,214.003z" fill="#D80027"/>
	</g>
</g>
<g>
	<g>
		<path d="M164.921,254.003H59.112c-5.522,0-10,4.477-10,10s4.478,10,10,10h105.809c5.523,0,10-4.477,10-10    S170.443,254.003,164.921,254.003z" fill="#D80027"/>
	</g>
</g>
<g>
	<g>
		<path d="M130.11,294.003h-0.475c-5.523,0-10,4.477-10,10s4.477,10,10,10h0.475c5.522,0,10-4.477,10-10    S135.633,294.003,130.11,294.003z" fill="#D80027"/>
	</g>
</g>
<g>
	<g>
		<path d="M100.551,294.003H59.112c-5.522,0-10,4.477-10,10s4.478,10,10,10h41.438c5.523,0,10-4.477,10-10    C110.551,298.479,106.073,294.003,100.551,294.003z" fill="#D80027"/>
	</g>
</g>
<g>
	<g>
		<path d="M391.732,313.317c-5.251,0-14.266-4.572-15.958-10.889c-1.171-4.372-5.133-7.412-9.659-7.412h-39.96    c-4.526,0-8.488,3.04-9.659,7.412c-1.692,6.317-10.707,10.889-15.958,10.889c-5.522,0-10,4.477-10,10v22.88    c0,48.838,44.194,70.789,55.597,70.789s55.598-21.951,55.598-70.789v-22.88C401.732,317.794,397.254,313.317,391.732,313.317z     M381.732,346.197c0,34.232-29.218,48.838-35.598,50.667c-6.379-1.83-35.597-16.436-35.597-50.667v-14.453    c8.667-2.637,17.253-8.484,22.139-16.728h26.917c4.886,8.244,13.472,14.091,22.139,16.728V346.197z" fill="#D80027"/>
	</g>
</g>
<g>
</g>
<g>
</g>
<g>
</g>
<g>
</g>
<g>
</g>
<g>
</g>
<g>
</g>
<g>
</g>
<g>
</g>
<g>
</g>
<g>
</g>
<g>
</g>
<g>
</g>
<g>
</g>
<g>
</g>
</svg>
