<?xml version="1.0" encoding="iso-8859-1"?>
<!-- Generator: Adobe Illustrator 19.0.0, SVG Export Plug-In . SVG Version: 6.00 Build 0)  -->
<svg xmlns="http://www.w3.org/2000/svg" xmlns:xlink="http://www.w3.org/1999/xlink" version="1.1" id="Capa_1" x="0px" y="0px" viewBox="0 0 512.001 512.001" style="enable-background:new 0 0 512.001 512.001;" xml:space="preserve" width="512px" height="512px">
<g>
	<g>
		<path d="M475.673,221.654c1.388-6.849,0.919-14.551-0.133-21.858c2.241-28.535-6.12-57.566-21.26-81.83    c-18.368-29.438-46.528-49.617-79.257-60.363c-38.597-12.673-80.607-14.605-120.898-12.468    c-39.411,2.09-79.925,6.793-117.376,19.768c-34.399,11.917-68.78,30.712-88.828,62.105c-9.285,14.539-15.69,31.182-18.791,48.138    c-2.804,15.331-4.805,34.297,0.229,49.39c0.828,2.481,1.946,4.592,3.274,6.427c-15.021,3.649-31.091,14.98-32.518,30.081    c-1.758,18.586,17.027,23.703,31.859,22.591c-9.206,5.834-16.061,16.737-18.68,26.497c-1.983,7.39-1.885,15.818,2.426,22.403    c2.005,3.063,4.894,5.522,8.121,7.216c4.425,2.322,12.984,1.517,15.229,5.877c0.702,1.364,0.123,4.577,0.583,6.223    c0.321,1.152,0.812,2.3,1.403,3.397c-11.93,6.273-11.51,16.736-4.549,24.228c-0.08,0.16-0.168,0.314-0.201,0.507    c-4.329,25.389-8.231,56.785,19.182,70.43c14.352,7.143,30.874,8.117,46.558,9.698c21.246,2.142,42.562,3.01,63.885,3.993    c43.924,2.024,87.685,4.433,131.682,3.152c21.565-0.628,43.012-2.301,64.508-4.05c19.444-1.582,39.297-2.423,58.494-6.09    c16.398-3.132,30.806-12.065,37.512-27.821c6.397-15.031,5.748-31.958,3.617-47.875c8.552-4.747,13.815-12.597,13.391-25.943    c-0.014-0.44-0.075-0.847-0.17-1.23c9.158-2.851,17.315-8.85,20.168-18.666c1.588-5.464,1.185-11.764-2.373-16.387    c-1.662-2.159-3.939-3.598-6.296-4.9c-4.766-2.635-4.431-3.433-2.677-8.366c3.571-10.046,5.791-20.983,0.281-29.882    c12.503-0.838,25.211-4.962,27.558-17.982C515.072,238.943,494.111,222.228,475.673,221.654z M40.048,191.486    c1.029-15.998,5.226-32.096,12.35-46.468c15.65-31.571,44.909-50.843,76.852-63.71c23.021-9.274,47.396-14.694,71.913-18.175    c23.949-3.4,47.11-5.949,71.391-5.879c15.759,0.046,31.236,0.686,46.936,2.008c6.342,0.534,12.587,1.237,18.775,2.742    c36.571,8.892,71.925,21.686,96.082,52.264c11.124,14.08,20.796,30.462,25.791,47.76c5.174,17.92,4.697,36.167,5.544,54.502    c-1.899,5.619-5.223,10.123-11.094,12.005c-10.904,3.495-23.187,1.886-34.462,2.23c-41.185,1.255-82.313,0.21-123.505,0.639    c-41.808,0.436-83.61,1.386-125.419,1.773c-20.293,0.188-40.616,0.447-60.906-0.055c-18.731-0.463-39.283-0.226-57.566-4.691    C36.98,224.586,39.205,204.602,40.048,191.486z M43.515,358.852c2.983,3.57,7.073,5.807,11.573,6.928    c9.514,2.372,21.263,0.082,30.253-3.422c3.411-1.33,10.149-7.285,13.411-6.981c2.757,0.257,3.627,3.394,5.201,5.206    c2.465,2.836,5.683,5.012,9.085,6.566c5.484,2.504,11.873,3.174,17.829,2.546c2.798-0.296,5.374-1.003,7.989-2.06    c2.465-0.996,8.904-5.841,9.829-5.96c0.215-0.028,0.322-0.069,0.372-0.115c0.121,0.062,0.261,0.131,0.448,0.216    c0.657,0.301,2.277,2.008,3.155,2.683c2.431,1.867,5.079,3.535,7.933,4.672c5.833,2.324,11.901,2.271,17.956,0.802    c5.631-1.365,11.597-3.875,15.97-7.742c3.114-2.754,3.301-4.466,7.295-2.063c2.513,1.512,4.18,3.575,6.901,4.852    c12.821,6.021,28.247,3.865,40.364-2.469c0.76-0.398,1.73-1.037,2.768-1.687c-2.359,6.172-3.059,12.704-11.267,14.939    c-9.566,2.605-20.249,2.894-30.095,3.137c-22.269,0.55-44.731-1.352-66.946,0.789c-9.617,0.927-19.127,2.941-28.801,3.246    c-10.502,0.331-21.077-1.571-31.557-2.249c-9.712-0.629-20.132-0.044-29.626-2.27c-4.234-0.993-10.269-2.805-12.961-6.532    C37.232,367.233,40.408,362.807,43.515,358.852z M288.897,425.377c-3.264,12.871-12.651,9.055-17.796,0.21    c-3.828-6.579-2.967-12.056-3.272-19.263c-0.306-7.274-5.328-18.579-14.512-13.221c-6.172,3.6-6.399,13.193-14.539,14.362    c-9.641,1.384-11.287-10.975-10.788-19.207c8.187-0.741,16.813-2.09,22.96-5.887c2.616-1.616,4.646-3.783,6.223-6.275    c0.332,0.605,0.706,1.207,1.17,1.805c4.946,6.368,13.983,8.114,21.482,9.148c4.493,0.62,8.978,1.175,13.461,1.698    C286.552,399.372,291.968,413.27,288.897,425.377z M447.783,420.761c-5.123,16.199-19.199,22.691-34.934,25.181    c-36.473,5.771-74.437,7.843-111.314,9.144c-36.59,1.291-73.229,0.525-109.781-1.434c-36.138-1.938-72.838-1.837-108.69-7.249    c-16.091-2.429-33.024-7.182-38.137-24.436c-3.64-12.28-2.317-25.745-3.661-38.518c1.746,1.141,3.677,2.132,5.767,2.917    c11.299,4.239,24.304,3.197,36.147,3.552c14.803,0.444,29.372,2.339,44.162,0.8c29.785-3.099,59.333,0.911,89.078-1.576    c1.993-0.167,4.14-0.309,6.373-0.469c-3.056,10.95,1.408,25.846,13.869,27.246c7.605,0.854,13.741-5.004,17.601-10.88    c1.553-2.365,0.844-4.12,3.871-2.33c2.58,1.526,1.884,3.395,1.82,5.996c-0.092,3.761-0.586,7.388,0.152,11.115    c2.121,10.706,12.988,27.646,25.991,22.67c7.455-2.853,10.921-11.523,11.813-18.842c1.47-12.059-1.292-22.572,3.802-33.98    c18.258,1.852,36.508,2.78,55.009,2.246c27.621-0.796,56.385-0.785,83.79-4.397c3.284-0.433,6.42-0.999,9.396-1.711    C450.606,397.478,451.323,409.567,447.783,420.761z M450.671,374.801c-9.507,2.474-19.351,3.149-29.132,3.568    c-20.966,0.896-41.906,2.266-62.872,3.143c-21.586,0.903-42.719,0.197-64.179-2.255c-6.588-0.752-13.258-0.885-19.775-2.182    c-5.241-1.043-9.487-2.133-11.588-7.231c-0.861-2.089-1.217-4.507-1.44-6.924c0.054-0.343,0.124-0.686,0.172-1.027    c1.072,1.09,2.116,2.161,2.965,2.711c5.641,3.659,12.18,5.626,18.929,5.432c6.462-0.185,12.652-2.618,18.265-5.671    c3.422-1.861,4.983-3.989,8.708-2.912c2.757,0.797,5.708,3.983,8.501,5.148c11.909,4.968,25.064,2.379,35.325-4.667    c0.973-0.668,2.286-1.926,3.417-2.287c5.543-1.768,0.919-0.87,3.884,0.491c2.338,1.073,4.286,4.06,6.698,5.453    c5.592,3.228,12.33,4.618,18.771,4.282c6.015-0.314,11.544-2.797,16.945-5.242c4.443-2.012,6.654-3.252,11.334-1.247    c3.687,1.579,6.039,3.404,10.088,4.314c7.137,1.605,15.765,1.412,22.76-0.869c6.685-2.18,9.866-9.16,16.172-10.575    C464.55,366.362,461.096,372.088,450.671,374.801z M483.324,334.77c-5.958,12.361-19.067,7.878-28.638,13.038    c-6.474,3.49-9.299,7.888-17.473,8.546c-8.421,0.677-13.366-2.109-20.781-4.76c-10.392-3.716-18.278,3.617-28.092,5.498    c-6.861,1.315-13.509-0.036-18.914-4.528c-3.349-2.784-5.456-5.163-10.203-5.117c-4.459,0.044-8.265,2.66-11.987,4.767    c-6.023,3.409-12.066,5.6-19.171,5.033c-9.415-0.752-14.578-8.633-24.487-6.016c-6.344,1.675-11.835,5.377-18.47,6.315    c-9.117,1.289-14.012-2.801-21.175-7.343c-8.66-5.491-17.371,1.272-26.191,3.88c-5.707,1.687-11.779,2.492-17.744,1.832    c-7.459-0.826-10.028-5.114-16.052-8.084c-10.313-5.085-16.862,6.255-25.878,9.288c-8.034,2.703-13.792,1.43-20.633-3.275    c-2.025-1.392-2.899-2.377-5.41-2.747c-4.263-0.628-9.202,1.831-12.988,3.429c-8.344,3.522-19.341,5.946-26.828-1.207    c-6.334-6.051-7.825-11.601-17.796-8.231c-8.516,2.878-15.662,7.06-24.703,8.699c-5.129,0.93-12.931,2.072-17.213-1.821    c-4.544-4.131-1.357-11.076-4.874-15.782c-5.56-7.439-16.882-1.204-23.017-8.499c-11.893-14.142,8.421-41.201,23.473-42.979    c0.002,0,0.005-0.001,0.007-0.002c14.48,10.463,30.674,17.978,46.579,26.346c9.588,5.045,19.142,10.396,27.782,16.96    c6.041,4.59,12.492,10.67,20.393,11.474c7.398,0.753,12.809-3.947,18.042-8.463c8.67-7.483,17.535-14.711,26.549-21.776    c9.932-7.784,19.01-16.955,29.4-24.108c6.035-4.155,13.054-6.911,19.171-10.917c16.697,11.039,31.159,24.682,48.814,34.627    c10.912,6.147,21.983,11.967,32.484,18.807c7.094,4.621,14.952,10.239,23.805,9.911c15.999-0.592,28.385-18.23,39.743-27.557    c9.773-8.025,19.628-16.501,30.771-22.58c9.369-5.111,19.252-8.365,27.65-15.02c1.349-0.124,2.707-0.215,4.088-0.229    c8.241-0.08,16.649,2.706,24.883,3.506c0.835,0.081,1.708,0.156,2.604,0.224c0.209,0.844,0.64,1.69,1.408,2.48    c5.008,5.153,5.033,12.051,3.11,18.613c-1.359,4.636-5.261,8.772-5.607,13.67C468.869,323.231,489.817,321.301,483.324,334.77z     M52.619,279.93c2.579-0.671,5.148-1.391,7.708-2.146c8.383-2.473,18.669-7.541,27.465-5.314    c6.015,1.523,10.81,5.813,16.305,8.453c5.881,2.826,12.477,3.936,18.966,3.489c5.887-0.405,11.433-2.285,16.681-4.888    c6.611-3.278,12.899-8.708,20.572-8.594c7.118,0.107,12.589,4.929,18.718,7.986c5.414,2.7,11.051,4.138,17.117,4.006    c3.926-0.086,7.711-0.874,11.425-1.981c-4.233,2.936-8.384,6.055-12.496,9.379c-8.676,7.013-17.788,13.43-26.662,20.187    c-6.446,4.909-15.798,15.848-23.81,16.784c-7.753,0.905-16.073-7.746-22.374-11.817c-8.344-5.39-17.153-10.032-26.06-14.41    C81.692,293.945,67.22,286.796,52.619,279.93z M253.486,276.904c1.126,0.581,2.249,1.16,3.377,1.701    c6.136,2.942,12.574,5.107,19.393,5.664c6.846,0.56,13.653-0.573,20.047-3.004c7.207-2.741,14.44-7.521,22.403-6.655    c7.045,0.767,13.104,5.692,19.935,7.508c6.314,1.679,12.976,1.148,19.178-0.754c6.405-1.964,12.11-5.792,18.532-7.666    c8.682-2.534,16.318,1.333,24.776,2.942c3.589,0.683,7.045,0.779,10.431,0.542c-9.827,4.772-19.181,10.438-28.332,17.084    c-7.725,5.61-15.516,11.254-22.71,17.538c-5.742,5.016-13.729,14.496-22.192,13.245c-9.447-1.397-18.917-10.112-27.215-14.563    c-10.375-5.565-20.923-10.807-31.24-16.483C270.761,288.992,262.459,282.17,253.486,276.904z M494.288,261.733    c-10.874,5.263-26.795,2.824-38.148,0.434c-10.478-2.205-19.721-1.595-30.188,0.664c-6.132,1.324-12.197,3.14-18.55,2.62    c-7.127-0.583-13.626-3.727-20.635-4.764c-10.857-1.608-19.61,3.556-29.387,7.21c-6.144,2.296-11.859,3.287-18.165,1.252    c-6.486-2.094-12.037-6.143-18.897-7.127c-10.618-1.523-19.398,3.877-29.053,7.148c-15.784,5.348-26.097-1.218-40.339-6.799    c-23.008-9.016-43.829,15.991-66.105,6.642c-8.798-3.693-15.915-10.012-26.046-9.67c-9.912,0.334-17.513,6.922-26.124,10.871    c-8.68,3.98-17.891,4.631-26.66,0.584c-3.772-1.74-7.255-4.03-11.11-5.614c-8.212-3.374-16.082-2.912-24.603-0.965    c-15.418,3.523-32.803,10.061-48.801,7.486c-10.167-1.637-12.349-9.575-6.378-17.683c5.614-7.622,15.433-13.917,24.863-16.579    c6.075,3.449,13.674,4.708,21.085,5.639c22.685,2.853,45.517,3.634,68.362,3.671c47.782,0.078,95.556-1.051,143.33-1.777    c50.867-0.774,101.794-0.812,152.653-1.193c13.386-0.1,31.606,1.75,42.502-7.788c1.301-1.139,2.411-2.4,3.377-3.749    c7.98,1.613,16.191,4.307,22.062,9.921C499.149,247.728,503.214,257.412,494.288,261.733z" fill="#FFFFFF"/>
	</g>
</g>
<g>
</g>
<g>
</g>
<g>
</g>
<g>
</g>
<g>
</g>
<g>
</g>
<g>
</g>
<g>
</g>
<g>
</g>
<g>
</g>
<g>
</g>
<g>
</g>
<g>
</g>
<g>
</g>
<g>
</g>
</svg>
