<svg xmlns="http://www.w3.org/2000/svg" width="208.353" height="206.882" viewBox="0 0 208.353 206.882"><defs><style>.a{fill:#fff;}</style></defs><g transform="translate(0 -1.808)"><g transform="translate(0 1.808)"><g transform="translate(0 0)"><path class="a" d="M91.7,35.5a3.564,3.564,0,0,0,3.564-3.564V22.694A20.91,20.91,0,0,0,74.373,1.808H20.886A20.909,20.909,0,0,0,0,22.694V76.181A20.909,20.909,0,0,0,20.886,97.067H74.373A20.91,20.91,0,0,0,95.259,76.181V45.963a3.564,3.564,0,1,0-7.128,0V76.181A13.774,13.774,0,0,1,74.372,89.939H20.886A13.774,13.774,0,0,1,7.128,76.181V22.694A13.774,13.774,0,0,1,20.886,8.936H74.373A13.774,13.774,0,0,1,88.131,22.694v9.238A3.564,3.564,0,0,0,91.7,35.5Z" transform="translate(0 -1.808)"/></g></g><g transform="translate(113.095 1.808)"><g transform="translate(0 0)"><path class="a" d="M352.288,1.808H298.8a20.909,20.909,0,0,0-20.886,20.886V76.181A20.909,20.909,0,0,0,298.8,97.067h53.487a20.91,20.91,0,0,0,20.886-20.886V22.694A20.91,20.91,0,0,0,352.288,1.808Zm13.758,74.373h0a13.774,13.774,0,0,1-13.758,13.758H298.8a13.774,13.774,0,0,1-13.758-13.758V22.694A13.774,13.774,0,0,1,298.8,8.936h53.487a13.774,13.774,0,0,1,13.758,13.758V76.181Z" transform="translate(-277.915 -1.808)"/></g></g><g transform="translate(0 113.882)"><path class="a" d="M74.011,277.214H20.8A20.821,20.821,0,0,0,0,298.011v29.678a3.564,3.564,0,1,0,7.128,0V298.011a13.685,13.685,0,0,1,13.67-13.67H74.011a13.685,13.685,0,0,1,13.67,13.67v53.214a13.685,13.685,0,0,1-13.67,13.67H20.8a13.685,13.685,0,0,1-13.67-13.67v-6.614a3.564,3.564,0,0,0-7.128,0v6.614a20.821,20.821,0,0,0,20.8,20.8H74.011a20.821,20.821,0,0,0,20.8-20.8V298.011A20.821,20.821,0,0,0,74.011,277.214Z" transform="translate(0 -277.214)"/></g><g transform="translate(114.742 115.078)"><path class="a" d="M355.012,280.154H302.524a20.585,20.585,0,0,0-20.562,20.563V353.2a20.585,20.585,0,0,0,20.562,20.562h31.688a3.564,3.564,0,1,0,0-7.128H302.524A13.45,13.45,0,0,1,289.09,353.2V300.716a13.45,13.45,0,0,1,13.434-13.435h52.488a13.45,13.45,0,0,1,13.434,13.435V353.2a13.45,13.45,0,0,1-13.434,13.434h-7a3.564,3.564,0,0,0,0,7.128h7A20.585,20.585,0,0,0,375.574,353.2V300.717A20.585,20.585,0,0,0,355.012,280.154Z" transform="translate(-281.962 -280.154)"/></g><g transform="translate(37.927 17.901)"><path class="a" d="M101.746,41.354H96.765a3.564,3.564,0,1,0,0,7.128h1.417v17.37a3.564,3.564,0,1,0,7.128,0V44.918A3.564,3.564,0,0,0,101.746,41.354Z" transform="translate(-93.201 -41.354)"/></g><g transform="translate(151.197 17.9)"><path class="a" d="M388.122,62.287h-4.8l4.729-5.06a9.433,9.433,0,0,0-6.892-15.874h-.176a9.444,9.444,0,0,0-9.433,9.433,3.564,3.564,0,1,0,7.128,0,2.308,2.308,0,0,1,2.305-2.305h.176a2.306,2.306,0,0,1,1.685,3.88L372.506,63.418a3.564,3.564,0,0,0,2.6,6h13.012a3.564,3.564,0,0,0,0-7.128Z" transform="translate(-371.545 -41.353)"/></g><g transform="translate(37.368 129.024)"><path class="a" d="M108.1,330.429l.171-.182a9.4,9.4,0,0,0-6.87-15.823h-.175a9.414,9.414,0,0,0-9.4,9.4,3.564,3.564,0,0,0,7.128,0,2.278,2.278,0,0,1,2.275-2.275h.175a2.275,2.275,0,0,1,1.662,3.829L100.617,328a3.6,3.6,0,0,0,.007,4.874l2.444,2.6a2.275,2.275,0,0,1-1.662,3.829h-.175a2.278,2.278,0,0,1-2.275-2.275,3.564,3.564,0,1,0-7.128,0,9.414,9.414,0,0,0,9.4,9.4h.175a9.4,9.4,0,0,0,6.863-15.831Z" transform="translate(-91.827 -314.423)"/></g><g transform="translate(141.633 136.591)"><path class="a" d="M381.407,350.881h-.877v-5.289a12.572,12.572,0,1,0-25.144,0v5.289h-.877a6.473,6.473,0,0,0-6.466,6.466v20.3a6.473,6.473,0,0,0,6.466,6.466h26.9a6.473,6.473,0,0,0,6.466-6.466v-20.3A6.473,6.473,0,0,0,381.407,350.881Zm-18.893-5.289h0a5.444,5.444,0,0,1,10.888,0v5.289H362.514Zm18.232,31.39H355.172V358.009h25.574v18.973Z" transform="translate(-348.044 -333.02)"/></g><g transform="translate(33.687 58.063)"><path class="a" d="M108.288,149.716a3.565,3.565,0,0,0-4.166-2.836l-4.992.948V143.61a3.564,3.564,0,0,0-7.128,0v4.218l-4.992-.948a3.564,3.564,0,0,0-1.33,7l4.1.778-2.39,3.818a3.564,3.564,0,1,0,6.042,3.782l2.136-3.412L97.7,162.26a3.564,3.564,0,0,0,6.042-3.783l-2.39-3.818,4.1-.778A3.563,3.563,0,0,0,108.288,149.716Z" transform="translate(-82.78 -140.046)"/></g><g transform="translate(147.938 58.063)"><path class="a" d="M389.046,149.717a3.566,3.566,0,0,0-4.167-2.837l-4.992.948V143.61a3.564,3.564,0,1,0-7.128,0v4.218l-4.992-.948a3.564,3.564,0,1,0-1.33,7l4.1.778-2.39,3.818a3.564,3.564,0,1,0,6.042,3.783l2.136-3.412,2.136,3.412a3.564,3.564,0,0,0,6.042-3.782l-2.39-3.818,4.1-.778A3.564,3.564,0,0,0,389.046,149.717Z" transform="translate(-363.538 -140.046)"/></g><g transform="translate(33.515 171.925)"><path class="a" d="M107.773,429.483a3.566,3.566,0,0,0-4.166-2.836l-4.945.939v-4.174a3.564,3.564,0,1,0-7.128,0v4.174l-4.945-.939a3.564,3.564,0,1,0-1.331,7l4.051.769-2.364,3.776a3.564,3.564,0,1,0,6.042,3.782l2.11-3.37,2.11,3.37a3.564,3.564,0,0,0,6.042-3.782l-2.364-3.776,4.051-.769A3.564,3.564,0,0,0,107.773,429.483Z" transform="translate(-82.359 -419.847)"/></g></g></svg>