<svg xmlns="http://www.w3.org/2000/svg" width="257.912" height="254.998" viewBox="0 0 257.912 254.998"><defs><style>.a{fill:#fff;fill-rule:evenodd;}</style></defs><g transform="translate(-42.191 -125.001)"><g transform="translate(-5685 -9057.846)"><path class="a" d="M104.237,255.479V165.428L128.353,201.9l3.327,1.782H256.657l3.326-1.782L284.1,165.428v90.051Zm19.6-161.329,24.71,18.532-48.113,34.927-24.71-18.533Zm-11.4,54.41L151.163,120.4v28.155ZM280.772,156.4l-26.136,39.441H133.7L107.563,156.4Zm42.412-27.325-1.663-3.208L297.4,108.405l-5.465.832.95,5.345,19.84,14.494-24.71,18.533-20.909-15.088-5.465.833.831,5.464,13.424,9.742H237.173v-8.434l-3.921-3.921-3.92,3.921v8.434H159V116.6h15.563l3.92-3.8-3.92-3.92H156.39l-30.176-22.81h-4.632l-54.767,39.8-1.543,3.208,1.543,3.089,29.7,22.216v104.9l3.8,4.039h187.7l3.8-4.039v-104.9l29.819-22.216,1.544-3.089Z" transform="translate(5661.92 9174.525)"/><path class="a" d="M74.368,139.644a52.819,52.819,0,0,1,45.144-45.975l7.009-.356a52.527,52.527,0,0,1,5.346,104.78l-21.741-2.375-9.265.119-16.632,5.227,1.545-15.444-2.376-9.86A52.135,52.135,0,0,1,74.368,139.644Zm3.683,45.144-2.138,21.5,1.426,3.445,2.494.833,1.189-.237,22.333-7.129,4.277-.119,25.067,2.852c30.888-3.326,54.766-30.057,54.172-61.182a60.844,60.844,0,0,0-20.909-44.668,59.8,59.8,0,0,0-47.519-14.138c-26.968,3.446-48.826,25.78-51.8,52.748a60.226,60.226,0,0,0,10.217,41.46l1.188,4.634Z" transform="translate(5772.099 9097.431)"/><path class="a" d="M69.186,148.64l2.851-1.189L128.229,91.14V85.676h-5.583L66.454,141.867v5.584l2.732,1.189" transform="translate(5801.277 9127.996)"/><path class="a" d="M66.775,86v20.434l10.335,4.278,10.217-4.278V86Z" transform="translate(5839.09 9165.926)"/><path class="a" d="M76.7,110.412l10.216-4.159V85.7H66.48v20.551Z" transform="translate(5804.34 9131.058)"/></g></g></svg>