<?xml version="1.0" encoding="UTF-8"?>
<svg width="40px" height="40px" viewBox="0 0 40 40" version="1.1" xmlns="http://www.w3.org/2000/svg" xmlns:xlink="http://www.w3.org/1999/xlink">
    <!-- Generator: Sketch 48.2 (47327) - http://www.bohemiancoding.com/sketch -->
    <title>ico_pay_vis</title>
    <desc>Created with Sketch.</desc>
    <defs>
        <linearGradient x1="50%" y1="-4.54545455%" x2="50%" y2="102.3725%" id="linearGradient-1">
            <stop stop-color="#7CC0FF" offset="0%"></stop>
            <stop stop-color="#FFA3D7" offset="100%"></stop>
        </linearGradient>
    </defs>
    <g id="Symbols" stroke="none" stroke-width="1" fill="none" fill-rule="evenodd">
        <g id="ico_pay_vis" fill="url(#linearGradient-1)" fill-rule="nonzero">
            <path d="M4.8,7 C2.70406288,7 1,8.619358 1,10.6111111 L1,29.3888889 C1,31.3806427 2.70406288,33 4.8,33 L35.2,33 C37.2959379,33 39,31.3806427 39,29.3888889 L39,10.6111111 C39,8.619358 37.2959379,7 35.2,7 L4.8,7 Z M24.7589928,16 C25.8574638,16 27,16.4331551 27,16.4331551 L26.5971223,18.3101604 C26.5971223,18.3101604 25.7284173,17.7566845 24.9604317,17.7566845 C23.7769784,17.7566845 23.3489209,18.1266713 23.3489209,18.6229947 C23.3489209,19.5945858 26.647482,19.7660428 26.647482,21.9438503 C26.647482,23.7546795 24.2963127,25 22.5935252,25 C20.8907376,25 20,24.5187166 20,24.5187166 L20.4280576,22.6898396 C20.4280576,22.6898396 21.3187952,23.1951872 22.6942446,23.1951872 C24.0665468,23.1951872 24.2553957,22.6356956 24.2553957,22.4010695 C24.2553957,21.011364 20.9820144,21.3993986 20.9820144,18.6951872 C20.9820144,17.2002007 22.2598925,16 24.7589928,16 Z M13.5061728,16 L16,16 L12.4444444,24 L9.87654321,24 L8,17.5280899 C8,17.5280899 9.97222242,18.4438206 11.1851852,20.9213483 C11.2376541,21.2219103 11.382716,21.7078652 11.382716,21.7078652 L13.5061728,16 Z M17.4736842,16 L20,16 L18.5,24 L16,24 L17.4736842,16 Z M28.7920489,16 L31.2140673,16 L33,24 L30.8960245,24 L30.6513761,22.8539326 L27.764526,22.8539326 L27.2996942,24 L25,24 L28.7920489,16 Z M6,16 L9.82532751,16 C10.8013105,16 11.1615721,16.8883249 11.1615721,16.8883249 L12,21 C10.8668126,17.4593909 6,16 6,16 Z M29.3333333,19 L28,22 L30,22 L29.3333333,19 Z" id="Shape"></path>
        </g>
    </g>
</svg>