<?xml version="1.0" encoding="UTF-8"?>
<svg width="40px" height="40px" viewBox="0 0 40 40" version="1.1" xmlns="http://www.w3.org/2000/svg" xmlns:xlink="http://www.w3.org/1999/xlink">
    <!-- Generator: Sketch 48.2 (47327) - http://www.bohemiancoding.com/sketch -->
    <title>ico_pay_cah</title>
    <desc>Created with Sketch.</desc>
    <defs>
        <linearGradient x1="50%" y1="-4.54545455%" x2="50%" y2="102.3725%" id="linearGradient-1">
            <stop stop-color="#7CC0FF" offset="0%"></stop>
            <stop stop-color="#FFA3D7" offset="100%"></stop>
        </linearGradient>
    </defs>
    <g id="Symbols" stroke="none" stroke-width="1" fill="none" fill-rule="evenodd">
        <g id="ico_pay_cah" fill="url(#linearGradient-1)" fill-rule="nonzero">
            <path d="M25.3425016,7 C23.2602411,7 21.5686916,8.49031728 21.2974917,10.4114631 C22.5937341,10.5345571 23.7612705,11.0357262 24.7173637,11.7830823 L24.7173637,10.3411237 L23.7612705,10.3411237 L25.0115462,9.14535309 L25.9676395,9.14535309 L25.9676395,12.7326648 L25.7102297,12.7326648 C26.1744863,13.2953804 26.5376181,13.9372284 26.7766414,14.6318298 C28.3394861,14.0735102 29.461057,12.6315516 29.461057,10.9390089 C29.461057,8.76288207 27.6178199,7 25.3425016,7 Z M20.635581,11.5017245 C17.7121421,11.5017245 15.3402954,13.7701716 15.3402954,16.5661646 C15.3402954,19.3621575 17.7121421,21.6306047 20.635581,21.6306047 C23.55902,21.6306047 25.9308666,19.3621575 25.9308666,16.5661646 C25.9308666,13.7701716 23.55902,11.5017245 20.635581,11.5017245 Z M20.1943072,14.2801326 L21.444583,14.2801326 L21.444583,18.8521966 L19.8265791,18.8521966 L19.8265791,15.7924307 L18.5763033,15.7924307 L20.1943072,14.2801326 Z M12.8029711,23.3539211 C12.187027,23.3715059 11.4607633,23.5473546 10.4495108,23.9166366 C8.78094397,24.5233149 6,25.780632 6,25.780632 L9.34632632,32.8497462 L10.9275574,31.9353334 C11.8698606,31.3594289 12.7753921,31.3770138 14.016474,31.9353334 C15.4092448,32.5595966 17.3352213,33.1794627 18.6866218,33.5883104 C20.7321094,34.2081765 21.0906449,34.1202522 22.4374491,33.3772921 C23.5866002,32.7442371 31.7317791,28.1501923 32.5867465,27.5742878 C33.9197616,26.6730639 34.3334552,25.8685563 33.7267038,25.1124072 C33.2670436,24.5408998 32.2190183,24.0661085 30.1229677,25.2530861 C30.3160256,24.4222017 29.6541149,23.9166366 28.8359192,23.9166366 C28.1142529,23.9166366 27.2638818,24.0749004 26.5927773,24.7255403 C25.6274915,23.5121848 24.630028,23.6836375 22.6948588,24.8310494 C21.9594024,25.270671 21.302088,25.6267641 20.8194451,25.8861411 C20.6907403,25.9564806 20.5942119,26.0092352 20.4884898,26.0619897 C20.6769502,26.1015554 20.8654117,26.1323292 21.0768548,26.1323292 C23.7888507,26.1323292 25.9308666,26.1323292 25.9308666,28.3831914 C25.9308666,30.1109038 23.8440099,30.6472426 22.7316316,30.6692234 L18.8704858,30.6692234 C16.797418,30.6692234 14.7887032,28.5590401 14.7887032,28.5590401 C14.7887032,28.5590401 17.1651462,29.5086226 18.8704858,29.5086226 L22.6948588,29.5086226 C22.7040526,29.5086226 24.7541365,29.4294913 24.7541365,28.3831914 C24.7541365,27.4248171 23.7336914,27.2577603 22.1064937,27.2577603 C19.4496583,27.2577603 18.1350295,26.0971595 18.1350295,26.0971595 C18.1350295,26.0971595 16.0849456,24.646409 15.4506139,24.2683339 C14.5129071,23.7056183 13.83261,23.3275444 12.8029711,23.3539211 Z" id="Shape"></path>
        </g>
    </g>
</svg>