<?xml version="1.0" encoding="UTF-8"?>
<svg width="40px" height="40px" viewBox="0 0 40 40" version="1.1" xmlns="http://www.w3.org/2000/svg" xmlns:xlink="http://www.w3.org/1999/xlink">
    <!-- Generator: Sketch 48.2 (47327) - http://www.bohemiancoding.com/sketch -->
    <title>ico_pay_mst</title>
    <desc>Created with Sketch.</desc>
    <defs>
        <linearGradient x1="50%" y1="-4.54545455%" x2="50%" y2="102.3725%" id="linearGradient-1">
            <stop stop-color="#7CC0FF" offset="0%"></stop>
            <stop stop-color="#FFA3D7" offset="100%"></stop>
        </linearGradient>
    </defs>
    <g id="Symbols" stroke="none" stroke-width="1" fill="none" fill-rule="evenodd">
        <g id="ico_pay_mst" fill="url(#linearGradient-1)" fill-rule="nonzero">
            <path d="M3.47826087,8 L36.5217391,8 C37.8996266,8 39,9.04064922 39,10.34375 L39,30.65625 C39,31.9593508 37.8996266,33 36.5217391,33 L3.47826087,33 C2.10037343,33 1,31.9593508 1,30.65625 L1,10.34375 C1,9.04064922 2.10037343,8 3.47826087,8 Z M13.2,11 C7.57539105,11 3,15.2613936 3,20.5 C3,25.7386072 7.57539105,30 13.2,30 C15.8164062,30 18.19375,29.0629881 20,27.5507812 C21.80625,29.0629881 24.1869138,30 26.8,30 C32.4246098,30 37,25.7386072 37,20.5 C37,15.2613936 32.4246098,11 26.8,11 C24.1869138,11 21.80625,11.9370119 20,13.4492188 C18.19375,11.9370119 15.8164062,11 13.2,11 Z M26.5947467,13 C31.2471855,13 35,16.348633 35,20.5 C35,24.651367 31.2471855,28 26.5947467,28 C24.4507507,28 22.4840525,27.2998045 21,26.125 C22.388837,24.5810545 23.2326454,22.629883 23.2326454,20.5 C23.2326454,18.370117 22.388837,16.4189455 21,14.875 C22.4840525,13.7001955 24.4507507,13 26.5947467,13 Z" id="Shape-Copy"></path>
        </g>
    </g>
</svg>