<?xml version="1.0" encoding="UTF-8"?>
<svg width="40px" height="40px" viewBox="0 0 40 40" version="1.1" xmlns="http://www.w3.org/2000/svg" xmlns:xlink="http://www.w3.org/1999/xlink">
    <!-- Generator: Sketch 48.2 (47327) - http://www.bohemiancoding.com/sketch -->
    <title>ico_pay_apl</title>
    <desc>Created with Sketch.</desc>
    <defs>
        <linearGradient x1="50%" y1="-4.54545455%" x2="50%" y2="102.3725%" id="linearGradient-1">
            <stop stop-color="#7CC0FF" offset="0%"></stop>
            <stop stop-color="#FFA3D7" offset="100%"></stop>
        </linearGradient>
    </defs>
    <g id="Symbols" stroke="none" stroke-width="1" fill="none" fill-rule="evenodd">
        <g id="ico_pay_apl" fill="url(#linearGradient-1)" fill-rule="nonzero">
            <path d="M8.78850789,12 C8.1372224,12.0304125 7.3329994,12.4344119 6.87358963,13.0023643 C6.45239902,13.4920053 6.09222988,14.2871975 6.18348776,15.033824 C6.91901145,15.0961696 7.65423033,14.6599405 8.11364009,14.1071936 C8.56603001,13.5392397 8.86494619,12.7777993 8.78850789,12 Z M15.0405561,13.5191393 L15.0405561,24.9238211 L16.8930148,24.9238211 L16.8930148,21.1222605 L19.4279583,21.1222605 C21.7546465,21.1222605 23.4253693,19.5446129 23.4253693,17.3206999 C23.4253693,15.096787 21.7851633,13.5191393 19.4888945,13.5191393 L15.0405561,13.5191393 Z M16.8930148,15.0397636 L19.037967,15.0397636 C20.6345915,15.0397636 21.5729106,15.8799085 21.5729106,17.3206999 C21.5729106,18.7614914 20.6423913,19.6016363 19.037967,19.6016363 L16.8930148,19.6016363 L16.8930148,15.0397636 Z M8.70319729,15.4199196 C7.63072118,15.4199196 6.86399827,15.9901537 6.36324942,15.9901537 C5.85470075,15.9901537 5.09577766,15.4273448 4.21829721,15.4273448 C3.14582111,15.4273448 2.09546484,16.0835649 1.54167716,17.0400376 C0.40368251,18.9522225 1.24625874,21.7829839 2.34603426,23.3393428 C2.88500225,24.1102993 3.53581242,24.9238211 4.41329287,24.9238211 C5.21745495,24.8941689 5.48966889,24.448626 6.46074725,24.448626 C7.43884546,24.448626 7.72821901,24.9238211 8.60569946,24.9238211 C9.48317991,24.9238211 10.0144214,24.1399986 10.5526094,23.3690421 C11.1672357,22.4946832 11.4183168,21.642314 11.4331365,21.5974556 C11.4183168,21.5830097 9.73490682,20.952901 9.71930717,19.0551619 C9.7044875,17.4691509 11.0462893,16.7128897 11.1071279,16.6687916 C10.3482048,15.5724215 9.0931886,15.4199196 8.80069512,15.4199196 L8.70319729,15.4199196 Z M27.6756654,16.5603878 C25.7342887,16.5603878 24.2995223,17.6213676 24.2464835,19.0804066 L25.8917593,19.0804066 C26.0274763,18.3870019 26.7004063,17.932514 27.6223458,17.932514 C28.7400609,17.932514 29.3712135,18.4314924 29.3712135,19.3491891 L29.3727368,19.9817923 L27.0861077,20.0991062 C24.963775,20.2215165 23.8153606,21.0527634 23.8153606,22.4973565 C23.8153606,23.9563954 25.001105,24.925306 26.7006871,24.925306 C27.8488215,24.925306 28.914302,24.3690426 29.3971112,23.4878409 L29.4351962,23.4878409 L29.4351962,24.8376922 L31.1261744,24.8376922 L31.1261744,19.2333601 C31.1269544,17.6070525 29.7683588,16.5603878 27.6756654,16.5603878 Z M31.8101825,16.5603878 L34.9362062,24.8852117 L34.7686324,25.391591 C34.4862787,26.2499833 34.0290989,26.5795787 33.213237,26.5795787 C33.0736202,26.5795787 32.8093402,26.5658102 32.6876629,26.5513642 L32.6876629,27.9234896 C32.8109002,27.9501013 33.2398173,27.9650696 33.3731943,27.9650696 C35.1726142,27.9650696 36.019517,27.3051544 36.7597205,25.3024923 L40,16.5603878 L38.1246901,16.5603878 L35.9507935,23.3155831 L35.9127085,23.3155831 L33.7388112,16.5603878 L31.8101825,16.5603878 Z M29.3727368,21.1222605 L29.3666435,21.7815941 C29.3666435,22.836147 28.4298353,23.5873353 27.1912229,23.5873353 C26.2170246,23.5873353 25.5977426,23.1400931 25.5977426,22.4542916 C25.5977426,21.746441 26.1948317,21.3346605 27.3359463,21.2692737 L29.3727368,21.1222605 Z" id="Shape"></path>
        </g>
    </g>
</svg>