<?xml version="1.0" encoding="UTF-8"?>
<svg width="40px" height="40px" viewBox="0 0 40 40" version="1.1" xmlns="http://www.w3.org/2000/svg" xmlns:xlink="http://www.w3.org/1999/xlink">
    <!-- Generator: Sketch 48.2 (47327) - http://www.bohemiancoding.com/sketch -->
    <title>ico_pay_pal</title>
    <desc>Created with Sketch.</desc>
    <defs>
        <linearGradient x1="50%" y1="-4.54545455%" x2="50%" y2="102.3725%" id="linearGradient-1">
            <stop stop-color="#7CC0FF" offset="0%"></stop>
            <stop stop-color="#FFA3D7" offset="100%"></stop>
        </linearGradient>
    </defs>
    <g id="Symbols" stroke="none" stroke-width="1" fill="none" fill-rule="evenodd">
        <g id="ico_pay_pal" fill="url(#linearGradient-1)" fill-rule="nonzero">
            <path d="M11.6242088,6 C11.0103246,6 10.4611861,6.40353261 10.3388887,6.99048913 C10.3388887,6.99048913 6.71793134,22.8429011 6.0416992,26.0115489 C5.9194018,26.6581185 6.08726107,27.0066239 6.27190578,27.2404891 C6.51650058,27.5339674 6.89298411,27.7173913 7.38457093,27.7173913 L11.9887026,27.7173913 L15.6144563,11.7595109 C15.7367537,11.1725543 16.2930862,10.1086957 18.0124415,10.1086957 L27.9496923,10.1086957 C27.0912139,7.40777883 24.3311328,6 21.7532985,6 L11.6242088,6 Z M18.1275448,11.3376359 L17.1491668,11.5210598 C16.9645221,11.6379927 16.847021,11.8764438 16.7846731,12.0529891 L15.3075142,18.6195652 C15.7367537,18.4430198 16.1587991,18.3811141 16.6503859,18.3811141 L21.0818626,18.3811141 C25.0097627,18.3811141 27.2135107,16.8632815 27.9496923,13.5754076 C28.0719897,12.9884511 28.1415312,12.5230128 28.1415312,12.0529891 L28.0647956,11.392663 L28.0647956,11.3376359 L18.1275448,11.3376359 Z M29.2350124,11.4660326 L29.2925641,11.8695652 C29.354912,12.4565217 29.2422065,12.9815725 29.1199091,13.685462 C28.2614307,17.5006793 25.4869613,19.4449728 21.0051271,19.4449728 L16.5928342,19.4449728 C15.6096606,19.4449728 14.9358263,19.855384 14.7511816,20.6188859 C14.5065874,21.675866 12.3579926,31.3560633 12.2956447,31.5326087 C12.2332974,31.826087 12.300441,32.2296196 12.5450352,32.5230978 C12.7296799,32.7569636 13.0246322,33 13.6385164,33 L18.5495902,33 C19.1634744,33 19.7317968,32.5827109 19.8540942,31.9361413 C20.4056311,29.7052481 21.1346186,26.316491 21.1969659,26.1399457 C21.1969659,26.0803332 21.2545176,25.9565217 21.2545176,25.9565217 L24.5157775,25.9565217 C29.3045538,25.9565217 32.923114,23.205163 33.7815924,18.8029891 C34.3954767,16.1020723 33.6017434,14.3870587 32.8032145,13.4470109 C31.6977434,12.0965525 29.6642519,11.4660326 29.2350124,11.4660326 Z" id="Shape"></path>
        </g>
    </g>
</svg>